<svg xmlns="http://www.w3.org/2000/svg" viewBox="0 0 70.29 81"><defs><style>.cls-1,.cls-2,.cls-3,.cls-4,.cls-5,.cls-6,.cls-7,.cls-8{fill:none;}.cls-1,.cls-10,.cls-2,.cls-3,.cls-4,.cls-5,.cls-6,.cls-7,.cls-8,.cls-9{stroke:#b8aef8;stroke-linecap:round;stroke-linejoin:round;}.cls-2{stroke-dasharray:4 4;}.cls-3{stroke-dasharray:4 4;}.cls-4{stroke-dasharray:4 4;}.cls-5{stroke-dasharray:4 4;}.cls-6{stroke-dasharray:4 4;}.cls-7{stroke-dasharray:4 4;}.cls-8{stroke-dasharray:4 4;}.cls-9{fill:#9988f8;}.cls-10{fill:#b8aef8;}</style></defs><title>Asset 5</title><g id="Layer_2" data-name="Layer 2"><g id="letters"><polyline class="cls-1" points="36.88 1.5 35.15 0.5 33.42 1.5"/><line class="cls-2" x1="29.95" y1="3.5" x2="3.96" y2="18.5"/><polyline class="cls-1" points="2.23 19.5 0.5 20.5 2.23 21.5"/><line class="cls-3" x1="5.7" y1="23.5" x2="31.68" y2="38.5"/><polyline class="cls-1" points="33.41 39.5 35.15 40.5 36.88 39.5"/><line class="cls-4" x1="40.34" y1="37.5" x2="66.32" y2="22.5"/><polyline class="cls-1" points="68.06 21.5 69.79 20.5 68.06 19.5"/><line class="cls-5" x1="64.59" y1="17.5" x2="38.61" y2="2.5"/><polyline class="cls-1" points="2.23 21.5 0.5 20.5 0.5 22.5"/><line class="cls-6" x1="0.5" y1="26.5" x2="0.51" y2="56.5"/><polyline class="cls-1" points="0.51 58.5 0.51 60.5 2.24 61.5"/><line class="cls-7" x1="5.7" y1="63.5" x2="31.68" y2="78.5"/><polyline class="cls-1" points="33.41 79.5 35.14 80.5 35.14 78.5"/><line class="cls-8" x1="35.14" y1="74.5" x2="35.15" y2="44.5"/><polyline class="cls-1" points="35.15 42.5 35.15 40.5 33.41 39.5"/><line class="cls-3" x1="29.95" y1="37.5" x2="3.96" y2="22.5"/><polygon class="cls-9" points="69.79 20.5 35.15 40.5 35.14 80.5 69.78 60.5 69.79 20.5"/><polygon class="cls-10" points="35.15 0.5 0.5 20.5 0.51 60.5 35.15 40.5 35.15 0.5"/></g></g></svg>