<svg xmlns="http://www.w3.org/2000/svg" width="893" height="563" viewBox="0 0 893 563">
    <g fill="none" fill-rule="evenodd">
        <path fill="#FFF1B3" d="M549.445 440.568v44l-76.21 44v-44z"/>
        <path stroke="#ED1973" stroke-linecap="round" stroke-linejoin="round" stroke-width="1.1" d="M549.445 440.568v44l-76.21 44v-44z"/>
        <path fill="#FFE166" d="M544.68 481.827l-28.577-16.505.001 32.99z"/>
        <path stroke="#ED1973" stroke-linecap="round" stroke-linejoin="round" stroke-width="1.1" d="M544.68 481.827l-28.577-16.505.001 32.99z"/>
        <path fill="#FFF" d="M544.682 448.824l-.002 33.003-28.577-16.505z"/>
        <path stroke="#ED1973" stroke-linecap="round" stroke-linejoin="round" stroke-width="1.1" d="M544.682 448.824l-.002 33.003-28.577-16.505z"/>
        <path fill="#FFF" d="M473.222 264.569l-38.105-22.001.013 44 38.092 21.985z"/>
        <path stroke="#ED1973" stroke-linecap="round" stroke-linejoin="round" stroke-width="1.1" d="M473.222 264.569l-38.105-22.001.013 44 38.092 21.985z"/>
        <path fill="#FFE166" d="M439.896 283.818l28.575-16.505v32.99z"/>
        <path stroke="#ED1973" stroke-linecap="round" stroke-linejoin="round" stroke-width="1.1" d="M439.896 283.818l28.575-16.505v32.99z"/>
        <path fill="#FFF1B3" d="M439.894 250.814l.002 33.004 28.576-16.505z"/>
        <path stroke="#ED1973" stroke-linecap="round" stroke-linejoin="round" stroke-width="1.1" d="M439.894 250.814l.002 33.004 28.576-16.505z"/>
        <path fill="#FFE166" d="M358.92 242.56l-152.435 88.002 152.421 88L511.34 330.56z"/>
        <path stroke="#ED1973" stroke-linecap="round" stroke-linejoin="round" stroke-width="1.1" d="M358.92 242.56l-152.435 88.002 152.421 88L511.34 330.56z"/>
        <path stroke="#ED1973" stroke-dasharray="4.4,4.4,4.4" stroke-linecap="round" stroke-linejoin="round" stroke-width="1.1" d="M468.472 280.535l-145.915 82.31 66.655 38.227 76.067 44.081"/>
        <path fill="#FFF" d="M625.656 132.56l-.012 44 38.117-22z"/>
        <path stroke="#ED1973" stroke-linecap="round" stroke-linejoin="round" stroke-width="1.1" d="M625.656 132.56l-.012 44 38.117-22z"/>
        <path fill="#FFF" d="M15.974 264.559v44l38.09 22.003 38.12-22.008z"/>
        <path stroke="#ED1973" stroke-linecap="round" stroke-linejoin="round" stroke-width="1.1" d="M15.974 264.559v44l38.09 22.003 38.12-22.008z"/>
        <path fill="#FFF1B3" d="M244.591 176.562l-76.21 44-.007 131.997-38.099-21.997.001-132 114.328-66.003z"/>
        <path stroke="#ED1973" stroke-linecap="round" stroke-linejoin="round" stroke-width="1.1" d="M244.591 176.562l-76.21 44-.007 131.997-38.099-21.997.001-132 114.328-66.003z"/>
        <path fill="#ED1973" d="M130.275 374.562l-76.21-44L358.92 154.554 625.643 308.56l152.433-88 38.094 22-190.527 110L358.92 198.554 130.275 330.562l114.315 66-38.12 21.992z"/>
        <path stroke="#ED1973" stroke-linecap="round" stroke-linejoin="round" stroke-width="1.1" d="M130.275 374.562l-76.21-44L358.92 154.554 625.643 308.56l152.433-88 38.094 22-190.527 110L358.92 198.554 130.275 330.562l114.315 66-38.12 21.992z"/>
        <path fill="#FFE166" d="M397.03 176.559l114.298-65.998 38.118 21.999-76.21 44z"/>
        <path stroke="#ED1973" stroke-linecap="round" stroke-linejoin="round" stroke-width="1.1" d="M397.03 176.559l114.298-65.998 38.118 21.999-76.21 44z"/>
        <path fill="#FFF1B3" d="M473.235 176.56v44.009l38.105-22.01v43.995l38.105 22V132.56z"/>
        <path stroke="#ED1973" stroke-linecap="round" stroke-linejoin="round" stroke-width="1.1" d="M473.235 176.56v44.009l38.105-22.01v43.995l38.105 22V132.56z"/>
        <path fill="#FFF" d="M511.34 242.554l-38.105-21.985 38.105-22.009z"/>
        <path stroke="#ED1973" stroke-linecap="round" stroke-linejoin="round" stroke-width="1.1" d="M511.34 242.554l-38.105-21.985 38.105-22.009z"/>
        <path fill="#FFF1B3" d="M473.222 308.553l38.119-21.999-38.12-21.985z"/>
        <path stroke="#ED1973" stroke-linecap="round" stroke-linejoin="round" stroke-width="1.1" d="M473.222 308.553l38.119-21.999-38.12-21.985z"/>
        <path fill="#FFF1B3" d="M473.235 176.56l-76.205-.001-.019 43.989 76.224.02z"/>
        <path stroke="#ED1973" stroke-linecap="round" stroke-linejoin="round" stroke-width="1.1" d="M473.235 176.56l-76.205-.001-.019 43.989 76.224.02z"/>
        <path fill="#FFF" d="M92.17 176.562l.014 131.992 38.105-22-.014-87.992z"/>
        <path stroke="#ED1973" stroke-linecap="round" stroke-linejoin="round" stroke-width="1.1" d="M92.17 176.562l.014 131.992 38.105-22-.014-87.992z"/>
        <path fill="#FFE166" d="M92.184 308.554l-76.21-43.995 38.091-21.997 38.12 22.008z"/>
        <path stroke="#ED1973" stroke-linecap="round" stroke-linejoin="round" stroke-width="1.1" d="M92.184 308.554l-76.21-43.995 38.091-21.997 38.12 22.008z"/>
        <path fill="#FFE166" d="M625.656 220.56l-38.118 22 38.105 22 38.106-22z"/>
        <path stroke="#ED1973" stroke-linecap="round" stroke-linejoin="round" stroke-width="1.1" d="M625.656 220.56l-38.118 22 38.105 22 38.106-22z"/>
        <path fill="#FFF" d="M587.538 242.56v44.009l38.105 21.992v-44z"/>
        <path stroke="#ED1973" stroke-linecap="round" stroke-linejoin="round" stroke-width="1.1" d="M587.538 242.56v44.009l38.105 21.992v-44z"/>
        <path fill="#FFF" d="M625.644 176.56l.012 44 38.093 22v-44z"/>
        <path stroke="#ED1973" stroke-linecap="round" stroke-linejoin="round" stroke-width="1.1" d="M625.644 176.56l.012 44 38.093 22v-44z"/>
        <path fill="#FFE166" d="M587.555 330.559l-38.11 22.002 76.198 44 114.316-66-38.092-22.017-76.224 44.017z"/>
        <path stroke="#ED1973" stroke-linecap="round" stroke-linejoin="round" stroke-width="1.1" d="M587.555 330.559l-38.11 22.002 76.198 44 114.316-66-38.092-22.017-76.224 44.017z"/>
        <path fill="#FFE166" d="M549.445 440.568l-76.21 44-38.119-22 76.21-44z"/>
        <path stroke="#ED1973" stroke-linecap="round" stroke-linejoin="round" stroke-width="1.1" d="M549.445 440.568l-76.21 44-38.119-22 76.21-44z"/>
        <path fill="#FFF" d="M473.235 484.568l-38.119-22v44l38.12 22z"/>
        <path stroke="#ED1973" stroke-linecap="round" stroke-linejoin="round" stroke-width="1.1" d="M473.235 484.568l-38.119-22v44l38.12 22z"/>
        <path fill="#FFF1B3" d="M663.76 374.569l-38.117 21.993.013 44 38.105-22z"/>
        <path stroke="#ED1973" stroke-linecap="round" stroke-linejoin="round" stroke-width="1.1" d="M663.76 374.569l-38.117 21.993.013 44 38.105-22z"/>
        <path fill="#FFF" d="M625.643 396.562l-38.106-22.005v44.005l38.119 22z"/>
        <path stroke="#ED1973" stroke-linecap="round" stroke-linejoin="round" stroke-width="1.1" d="M625.643 396.562l-38.106-22.005v44.005l38.119 22z"/>
        <path fill="#FFE166" d="M130.289 418.554l-38.12 22.008-38.105-22-38.09 21.998 76.195 44.003 76.204-43.992z"/>
        <path stroke="#ED1973" stroke-linecap="round" stroke-linejoin="round" stroke-width="1.1" d="M130.289 418.554l-38.12 22.008-38.105-22-38.09 21.998 76.195 44.003 76.204-43.992z"/>
        <path fill="#FFF" d="M15.973 440.56l-.015 44.003 76.21 44v-44z"/>
        <path stroke="#ED1973" stroke-linecap="round" stroke-linejoin="round" stroke-width="1.1" d="M15.973 440.56l-.015 44.003 76.21 44v-44z"/>
        <path fill="#FFF1B3" d="M92.168 484.563l76.204-43.992.021-44.01 38.078 21.993.013 44.008-114.316 66z"/>
        <path stroke="#ED1973" stroke-linecap="round" stroke-linejoin="round" stroke-width="1.1" d="M92.168 484.563l76.204-43.992.021-44.01 38.078 21.993.013 44.008-114.316 66z"/>
        <path fill="#FFF" d="M130.288 374.56v43.994l38.084 22.017.021-44.01z"/>
        <path stroke="#ED1973" stroke-linecap="round" stroke-linejoin="round" stroke-width="1.1" d="M130.288 374.56v43.994l38.084 22.017.021-44.01z"/>
        <path fill="#FFE166" d="M244.605 132.559l-76.21-44-38.12 21.049 38.12 22.95-76.225 44.004 38.105 22z"/>
        <path stroke="#ED1973" stroke-linecap="round" stroke-linejoin="round" stroke-width="1.1" d="M244.605 132.559l-76.21-44-38.12 21.049 38.12 22.95-76.225 44.004 38.105 22z"/>
        <path fill="#FFF" d="M130.275 109.608l.022 44.946 38.097-21.995z"/>
        <path stroke="#ED1973" stroke-linecap="round" stroke-linejoin="round" stroke-width="1.1" d="M130.275 109.608l.022 44.946 38.097-21.995z"/>
        <path fill="#FFE166" d="M549.439.556h-76.21l-38.094 21.998 38.105 22z"/>
        <path stroke="#ED1973" stroke-linecap="round" stroke-linejoin="round" stroke-width="1.1" d="M549.439.556h-76.21l-38.094 21.998 38.105 22z"/>
        <path fill="#FFF1B3" d="M549.439.556v44l-76.211 44 .012-44.001z"/>
        <path stroke="#ED1973" stroke-linecap="round" stroke-linejoin="round" stroke-width="1.1" d="M549.439.556v44l-76.211 44 .012-44.001z"/>
        <path fill="#FFF" d="M435.128 66.55l-38.105-22-.012 44.001 38.105 22z"/>
        <path stroke="#ED1973" stroke-linecap="round" stroke-linejoin="round" stroke-width="1.1" d="M435.128 66.55l-38.105-22-.012 44.001 38.105 22z"/>
        <path fill="#FFF1B3" d="M739.97 154.56l-76.221 44v44l-38.106 22v44l114.305-66.006z"/>
        <path stroke="#ED1973" stroke-linecap="round" stroke-linejoin="round" stroke-width="1.1" d="M739.97 154.56l-76.221 44v44l-38.106 22v44l114.305-66.006z"/>
        <path fill="#FFE166" d="M739.97 154.56l-76.21-44-38.104 22 38.105 22-38.117 22 38.105 22z"/>
        <path stroke="#ED1973" stroke-linecap="round" stroke-linejoin="round" stroke-width="1.1" d="M739.97 154.56l-76.21-44-38.104 22 38.105 22-38.117 22 38.105 22z"/>
        <path fill="#FFE166" d="M816.182 308.56l-38.105 22 38.11 21.997 38.099-21.997z"/>
        <path stroke="#ED1973" stroke-linecap="round" stroke-linejoin="round" stroke-width="1.1" d="M816.182 308.56l-38.105 22 38.11 21.997 38.099-21.997-38.104-22"/>
        <path fill="#FFF" d="M778.076 330.56v66l38.104 22 .007-66.003z"/>
        <path stroke="#ED1973" stroke-linecap="round" stroke-linejoin="round" stroke-width="1.1" d="M778.076 330.56v66l38.104 22 .007-66.003z"/>
        <path fill="#FFF1B3" d="M892.392 352.56l-38.1 21.997-.005 66.004 38.105-22z"/>
        <path stroke="#ED1973" stroke-linecap="round" stroke-linejoin="round" stroke-width="1.1" d="M892.392 352.56l-38.1 21.997-.005 66.004 38.105-22z"/>
        <path stroke="#ED1973" stroke-dasharray="4.4,4.4,4.4" stroke-linecap="round" stroke-linejoin="round" stroke-width="1.1" d="M701.866 440.544l-19.053 55 19.053 11v-66zM701.866 440.544l19.053 55-19.053 11v-66zM701.879 517.543v-10.997"/>
        <path fill="#FFF" d="M701.879 484.551l-19.053 55 19.053 11z"/>
        <path stroke="#ED1973" stroke-linecap="round" stroke-linejoin="round" stroke-width="1.1" d="M701.879 484.551l-19.053 55 19.053 11z"/>
        <path fill="#FFE98C" d="M701.879 484.551l19.053 55-19.053 11z"/>
        <path stroke="#ED1973" stroke-linecap="round" stroke-linejoin="round" stroke-width="1.1" d="M701.879 484.551l19.053 55-19.053 11zM701.892 561.551v-10.998"/>
        <path fill="#FFF" d="M339.867 451.569l-19.053 55 19.053 11z"/>
        <path stroke="#ED1973" stroke-linecap="round" stroke-linejoin="round" stroke-width="1.1" d="M339.867 451.569l-19.053 55 19.053 11z"/>
        <path fill="#FFE98C" d="M358.92 462.568l19.052 55-19.052 11z"/>
        <path stroke="#ED1973" stroke-linecap="round" stroke-linejoin="round" stroke-width="1.1" d="M358.92 462.568l19.052 55-19.052 11z"/>
        <path stroke="#ED1973" stroke-dasharray="4.4,4.4,4.4" stroke-linecap="round" stroke-linejoin="round" stroke-width="1.1" d="M358.92 528.568l-19.041-10.998v10.998"/>
        <path fill="#FFF" d="M168.397 55.557l-19.053 33 19.053 11z"/>
        <path stroke="#ED1973" stroke-linecap="round" stroke-linejoin="round" stroke-width="1.1" d="M168.397 55.557l-19.053 33 19.053 11z"/>
        <path fill="#FFF1B3" d="M168.397 55.557l19.052 33-19.053 11z"/>
        <path stroke="#ED1973" stroke-linecap="round" stroke-linejoin="round" stroke-width="1.1" d="M168.397 55.557l19.052 33-19.053 11z"/>
        <path fill="#FFE166" d="M730.47 237.057l-57.157-33v66z"/>
        <path stroke="#ED1973" stroke-linecap="round" stroke-linejoin="round" stroke-width="1.1" d="M730.47 237.057l-57.157-33v66z"/>
        <path fill="#FFF" d="M730.47 171.057l-57.157 33 57.157 33z"/>
        <path stroke="#ED1973" stroke-linecap="round" stroke-linejoin="round" stroke-width="1.1" d="M730.47 171.057l-57.157 33 57.157 33z"/>
        <path fill="#FFE166" d="M125.524 503.819l-28.577-16.505.001 32.99z"/>
        <path stroke="#ED1973" stroke-linecap="round" stroke-linejoin="round" stroke-width="1.1" d="M125.524 503.819l-28.577-16.505.001 32.99z"/>
        <path fill="#FFF" d="M125.526 470.815l-.002 33.004-28.577-16.505z"/>
        <path stroke="#ED1973" stroke-linecap="round" stroke-linejoin="round" stroke-width="1.1" d="M125.526 470.815l-.002 33.004-28.577-16.505z"/>
        <path fill="#FFE166" d="M96.95 217.819l28.577-16.504v32.99z"/>
        <path stroke="#ED1973" stroke-linecap="round" stroke-linejoin="round" stroke-width="1.1" d="M96.95 217.819l28.577-16.504v32.99z"/>
        <path fill="#FFF1B3" d="M96.948 184.815l.002 33.004 28.577-16.504z"/>
        <path stroke="#ED1973" stroke-linecap="round" stroke-linejoin="round" stroke-width="1.1" d="M96.948 184.815l.002 33.004 28.577-16.504z"/>
        <path fill="#FFE166" d="M20.732 305.818l28.577-16.505v32.99z"/>
        <path stroke="#ED1973" stroke-linecap="round" stroke-linejoin="round" stroke-width="1.1" d="M20.732 305.818l28.577-16.505v32.99z"/>
        <path fill="#FFF1B3" d="M20.73 272.813l.003 33.005 28.576-16.505z"/>
        <path stroke="#ED1973" stroke-linecap="round" stroke-linejoin="round" stroke-width="1.1" d="M20.73 272.813l.003 33.005 28.576-16.505z"/>
        <path fill="#FFE166" d="M543.88 176.56l-28.576-16.504v32.99z"/>
        <path stroke="#ED1973" stroke-linecap="round" stroke-linejoin="round" stroke-width="1.1" d="M543.88 176.56l-28.576-16.504v32.99z"/>
        <path fill="#FFF" d="M543.883 143.557l-.002 33.004-28.577-16.505z"/>
        <path stroke="#ED1973" stroke-linecap="round" stroke-linejoin="round" stroke-width="1.1" d="M543.883 143.557l-.002 33.004-28.577-16.505z"/>
        <g stroke="#ED1973" stroke-dasharray="4.4,4.4,4.4" stroke-linecap="round" stroke-linejoin="round" stroke-width="1.1">
            <path d="M54.063 44.779l-19.053 55 19.053 11v-66zM54.063 44.779l19.052 55-19.052 11v-66zM54.076 121.778V110.78"/>
        </g>
        <path stroke="#ED1973" stroke-dasharray="4.4,4.4,4.4" stroke-linecap="round" stroke-linejoin="round" stroke-width="1.1" d="M778.07 22.563l-19.054 55 19.053 11v-66z"/>
        <path stroke="#ED1973" stroke-dasharray="4.4,4.4,4.4" stroke-linecap="round" stroke-linejoin="round" stroke-width="1.1" d="M778.07 22.563l19.052 55-19.053 11v-66zM778.082 99.562V88.565M358.92 462.568l-19.053-11M892.392 352.56l-38.105-22M854.293 374.557l-38.105-22M854.286 440.56l-38.105-22M149.344 88.557l-.01 23.27M168.396 99.557v23.27M187.449 88.557l.01 23.27M625.656 198.557l-38.118 22.004-71.434-48.181M516.104 474.314l33.341 19.242 38.091-22.658-38.105-22.825M125.527 217.81l-23.833 13.748v159.505L.74 332.768l48.569-28.331M96.947 503.809l33.342 19.26 102.733-60.51-26.523-15.507M435.135 22.554L397.023 44.55M473.24 44.555L435.128 66.55M473.228 88.556l-38.112 21.995"/>
    </g>
</svg>
