<svg xmlns="http://www.w3.org/2000/svg" width="82" height="81" viewBox="0 0 82 81">
    <g fill="none" fill-rule="evenodd">
        <path fill="#FFE98C" d="M80.822 40.38c0 21.99-17.827 39.816-39.817 39.816S1.187 62.37 1.187 40.38C1.187 18.39 19.014.563 41.005.563c21.99 0 39.817 17.826 39.817 39.817"/>
        <path stroke="#ED1973" stroke-linecap="round" stroke-linejoin="round" stroke-width="1.1" d="M80.822 40.38c0 21.99-17.827 39.816-39.817 39.816S1.187 62.37 1.187 40.38C1.187 18.39 19.014.563 41.005.563c21.99 0 39.817 17.826 39.817 39.817z"/>
        <path fill="#FFF" d="M43.76 6.526C57.176 11.305 66.836 24.65 66.836 40.38s-9.66 29.075-23.076 33.854c17.475-1.403 31.22-16.02 31.22-33.854 0-17.835-13.745-32.451-31.22-33.854"/>
    </g>
</svg>
