<?xml version="1.0" encoding="UTF-8"?>
<svg width="1332px" height="331px" viewBox="0 0 1332 331" version="1.1" xmlns="http://www.w3.org/2000/svg" xmlns:xlink="http://www.w3.org/1999/xlink">
    <!-- Generator: Sketch 43.2 (39069) - http://www.bohemiancoding.com/sketch -->
    <title>algolia-logo-dark</title>
    <desc>Created with Sketch.</desc>
    <defs>
        <linearGradient x1="-37.7495446%" y1="134.935721%" x2="130.238907%" y2="-27.7001301%" id="linearGradient-1">
            <stop stop-color="#00AEFF" offset="0%"></stop>
            <stop stop-color="#3369E7" offset="100%"></stop>
        </linearGradient>
    </defs>
    <g id="Page-1" stroke="none" stroke-width="1" fill="none" fill-rule="evenodd">
        <g id="algolia-logo-dark" fill-rule="nonzero">
            <path d="M43.8,0.4 L286.6,0.4 C310.5,0.4 330,19.8 330,43.8 L330,286.7 C330,310.6 310.6,330.1 286.6,330.1 L43.8,330.1 C19.9,330.1 0.4,310.7 0.4,286.7 L0.4,43.7 C0.4,19.8 19.8,0.4 43.8,0.4 Z" id="Shape" fill="url(#linearGradient-1)"></path>
            <path d="M169,83.7 C117.6,83.7 75.9,125.4 75.9,176.9 C75.9,228.4 117.6,270 169,270 C220.4,270 262.1,228.3 262.1,176.8 C262.1,125.3 220.5,83.7 169,83.7 Z M169,242.5 C132.8,242.5 103.4,213.1 103.4,176.9 C103.4,140.7 132.8,111.3 169,111.3 C205.2,111.3 234.6,140.7 234.6,176.9 C234.6,213.1 205.3,242.5 169,242.5 Z M169,124.7 L169,173.6 C169,175 170.5,176 171.8,175.3 L215.2,152.8 C216.2,152.3 216.5,151.1 216,150.1 C207,134.3 190.3,123.5 171,122.8 C170,122.8 169,123.6 169,124.7 Z M108.2,88.8 L102.5,83.1 C96.9,77.5 87.9,77.5 82.3,83.1 L75.5,89.9 C69.9,95.5 69.9,104.5 75.5,110.1 L81.1,115.7 C82,116.6 83.3,116.4 84.1,115.5 C87.4,111 91,106.7 95,102.7 C99.1,98.6 103.3,95 107.9,91.7 C108.9,91.1 109,89.7 108.2,88.8 Z M199.5,74 L199.5,62.7 C199.5,54.8 193.1,48.4 185.2,48.4 L151.9,48.4 C144,48.4 137.6,54.8 137.6,62.7 L137.6,74.3 C137.6,75.6 138.8,76.5 140.1,76.2 C149.4,73.5 159.2,72.1 169.1,72.1 C178.6,72.1 188,73.4 197.1,75.9 C198.3,76.2 199.5,75.3 199.5,74 Z" id="Shape" fill="#FFFFFF"></path>
            <g id="Group" transform="translate(426.000000, 10.000000)" fill="#FFFFFF">
                <path d="M398.5,242.6 C398.5,269.3 391.7,288.8 378,301.2 C364.3,313.6 343.4,319.8 315.2,319.8 C304.9,319.8 283.5,317.8 266.4,314 L272.7,283 C287,286 305.9,286.8 315.8,286.8 C331.5,286.8 342.7,283.6 349.4,277.2 C356.1,270.8 359.4,261.3 359.4,248.7 L359.4,242.3 C355.5,244.2 350.4,246.1 344.1,248.1 C337.8,250 330.5,251 322.3,251 C311.5,251 301.7,249.3 292.8,245.9 C283.9,242.5 276.2,237.5 269.9,230.9 C263.6,224.3 258.6,216 255.1,206.1 C251.6,196.2 249.8,178.5 249.8,165.5 C249.8,153.3 251.7,138 255.4,127.8 C259.2,117.6 264.6,108.8 271.9,101.5 C279.1,94.2 287.9,88.6 298.2,84.5 C308.5,80.4 320.6,77.8 333.7,77.8 C346.4,77.8 358.1,79.4 369.5,81.3 C380.9,83.2 390.6,85.2 398.5,87.4 L398.5,242.6 L398.5,242.6 Z M289.8,165.4 C289.8,181.8 293.4,200 300.6,207.6 C307.8,215.2 317.1,219 328.5,219 C334.7,219 340.6,218.1 346.1,216.4 C351.6,214.7 356,212.7 359.5,210.3 L359.5,113.2 C356.7,112.6 345,110.2 333.7,109.9 C319.5,109.5 308.7,115.3 301.1,124.6 C293.6,133.9 289.8,150.2 289.8,165.4 Z M584.1,165.4 C584.1,178.6 582.2,188.6 578.3,199.5 C574.4,210.4 568.9,219.7 561.8,227.4 C554.7,235.1 546.2,241.1 536.2,245.3 C526.2,249.5 510.8,251.9 503.1,251.9 C495.4,251.8 480.1,249.6 470.2,245.3 C460.3,241 451.8,235.1 444.7,227.4 C437.6,219.7 432.1,210.4 428.1,199.5 C424.1,188.6 422.1,178.6 422.1,165.4 C422.1,152.2 423.9,139.5 427.9,128.7 C431.9,117.9 437.5,108.7 444.7,101 C451.9,93.3 460.5,87.4 470.3,83.2 C480.2,79 491.1,77 502.9,77 C514.7,77 525.6,79.1 535.6,83.2 C545.6,87.4 554.2,93.3 561.2,101 C568.3,108.7 573.8,117.9 577.8,128.7 C582,139.5 584.1,152.2 584.1,165.4 Z M544.1,165.5 C544.1,148.6 540.4,134.5 533.2,124.7 C526,114.8 515.9,109.9 503,109.9 C490.1,109.9 480,114.8 472.8,124.7 C465.6,134.6 462.1,148.6 462.1,165.5 C462.1,182.6 465.7,194.1 472.9,204 C480.1,214 490.2,218.9 503.1,218.9 C516,218.9 526.1,213.9 533.3,204 C540.5,194 544.1,182.6 544.1,165.5 Z M671.2,251.9 C607.1,252.2 607.1,200.1 607.1,191.8 L607,7 L646.1,0.8 L646.1,184.4 C646.1,189.1 646.1,218.9 671.2,219 L671.2,251.9 Z M740.1,251.9 L700.8,251.9 L700.8,83.1 L740.1,76.9 L740.1,251.9 Z M720.4,58.4 C733.5,58.4 744.2,47.8 744.2,34.7 C744.2,21.6 733.6,11 720.4,11 C707.2,11 696.6,21.6 696.6,34.7 C696.6,47.8 707.3,58.4 720.4,58.4 Z M837.8,77 C850.7,77 861.6,78.6 870.4,81.8 C879.2,85 886.3,89.5 891.5,95.2 C896.7,100.9 900.4,108.7 902.6,116.9 C904.9,125.1 906,134.1 906,144 L906,244.6 C900,245.9 890.9,247.4 878.7,249.2 C866.5,251 852.8,251.9 837.6,251.9 C827.5,251.9 818.2,250.9 809.9,249 C801.5,247.1 794.4,244 788.4,239.7 C782.5,235.4 777.9,229.9 774.5,223.1 C771.2,216.3 769.5,206.7 769.5,196.7 C769.5,187.1 771.4,181 775.1,174.4 C778.9,167.8 784,162.4 790.4,158.2 C796.9,154 804.3,151 812.8,149.2 C821.3,147.4 830.2,146.5 839.4,146.5 C843.7,146.5 848.2,146.8 853,147.3 C857.8,147.8 862.8,148.7 868.2,150 L868.2,143.6 C868.2,139.1 867.7,134.8 866.6,130.8 C865.5,126.7 863.6,123.2 861,120.1 C858.3,117 854.8,114.6 850.4,112.9 C846,111.2 840.4,109.9 833.7,109.9 C824.7,109.9 816.5,111 809,112.3 C801.5,113.6 795.3,115.1 790.6,116.8 L785.9,84.7 C790.8,83 798.1,81.3 807.5,79.6 C816.9,77.9 827,77 837.8,77 Z M841.1,218.9 C853.1,218.9 862,218.2 868.2,217 L868.2,177.2 C866,176.6 862.9,175.9 858.8,175.3 C854.7,174.7 850.2,174.3 845.2,174.3 C840.9,174.3 836.5,174.6 832.1,175.3 C827.7,175.9 823.7,177.1 820.2,178.8 C816.7,180.5 813.8,182.9 811.7,186 C809.5,189.1 808.5,190.9 808.5,195.6 C808.5,204.8 811.7,210.1 817.5,213.6 C823.4,217.2 831.2,218.9 841.1,218.9 Z M68.9,78 C81.8,78 92.7,79.6 101.5,82.8 C110.3,86 117.4,90.5 122.6,96.2 C127.9,102 131.5,109.7 133.7,117.9 C136,126.1 137.1,135.1 137.1,145 L137.1,245.6 C131.1,246.9 122,248.4 109.8,250.2 C97.6,252 83.9,252.9 68.7,252.9 C58.6,252.9 49.3,251.9 41,250 C32.6,248.1 25.5,245 19.5,240.7 C13.6,236.4 9,230.9 5.6,224.1 C2.3,217.3 0.6,207.7 0.6,197.7 C0.6,188.1 2.5,182 6.2,175.4 C10,168.8 15.1,163.4 21.5,159.2 C28,155 35.4,152 43.9,150.2 C52.4,148.4 61.3,147.5 70.5,147.5 C74.8,147.5 79.3,147.8 84.1,148.3 C88.8,148.8 93.9,149.7 99.3,151 L99.3,144.6 C99.3,140.1 98.8,135.8 97.7,131.8 C96.6,127.7 94.7,124.2 92.1,121.1 C89.4,118 85.9,115.6 81.5,113.9 C77.1,112.2 71.5,110.9 64.8,110.9 C55.8,110.9 47.6,112 40.1,113.3 C32.6,114.6 26.4,116.1 21.7,117.8 L17,85.7 C21.9,84 29.2,82.3 38.6,80.6 C48,78.8 58.1,78 68.9,78 Z M72.3,220 C84.3,220 93.2,219.3 99.4,218.1 L99.4,178.3 C97.2,177.7 94.1,177 90,176.4 C85.9,175.8 81.4,175.4 76.4,175.4 C72.1,175.4 67.7,175.7 63.3,176.4 C58.9,177 54.9,178.2 51.4,179.9 C47.9,181.6 45,184 42.9,187.1 C40.7,190.2 39.7,192 39.7,196.7 C39.7,205.9 42.9,211.2 48.7,214.7 C54.5,218.2 62.4,220 72.3,220 Z M230.8,251.9 C166.7,252.2 166.7,200.1 166.7,191.8 L166.6,7 L205.7,0.8 L205.7,184.4 C205.7,189.1 205.7,218.9 230.8,219 L230.8,251.9 L230.8,251.9 Z" id="Shape"></path>
            </g>
        </g>
    </g>
</svg>