 <svg version="1.0" xmlns="http://www.w3.org/2000/svg" width="700.000000pt" height="102.000000pt" viewBox="0 0 700.000000 102.000000" preserveAspectRatio="xMidYMid meet">
<metadata>
Created by potrace 1.12, written by Peter Selinger 2001-2015
</metadata>
<g transform="translate(0.000000,102.000000) scale(0.100000,-0.100000)" fill="#fff" stroke="none">
<path d="M0 516 l0 -506 194 0 c223 0 318 14 413 60 105 52 153 127 153 241 0
106 -61 190 -164 225 l-47 16 43 28 c79 50 108 104 108 197 -1 107 -48 171
-157 214 -53 21 -77 23 -300 27 l-243 4 0 -506z m442 361 c54 -23 71 -55 66
-127 -8 -105 -53 -134 -213 -134 l-110 -1 -3 129 c-1 72 0 136 3 144 7 20 204
11 257 -11z m-60 -406 c125 -16 188 -70 188 -158 0 -63 -23 -105 -73 -134 -38
-22 -56 -24 -179 -27 l-138 -4 0 159 c0 88 3 163 7 166 9 10 114 8 195 -2z"></path>
<path d="M3710 516 l0 -506 90 0 90 0 2 208 3 207 46 3 45 3 140 -210 139
-211 103 0 c57 0 102 3 100 8 -1 4 -67 103 -146 220 -79 118 -142 215 -140
217 2 1 22 12 46 24 111 56 172 149 172 262 0 121 -59 200 -189 251 -50 20
-78 22 -278 26 l-223 4 0 -506z m423 356 c38 -17 52 -30 67 -64 26 -57 25
-104 -2 -158 -34 -65 -78 -84 -205 -88 l-103 -4 0 172 0 173 98 -5 c69 -3 111
-11 145 -26z"></path>
<path d="M2493 830 c-145 -29 -251 -134 -282 -278 -26 -123 -7 -255 51 -364
36 -68 86 -116 160 -155 49 -26 61 -28 173 -28 114 0 123 2 188 32 41 20 67
38 67 48 0 14 -27 75 -33 75 -1 0 -27 -10 -57 -21 -77 -30 -181 -30 -237 -1
-93 48 -138 146 -138 302 0 147 43 237 128 269 68 26 153 2 184 -50 10 -16 21
-29 26 -29 30 0 137 35 137 45 0 6 -13 30 -29 52 -36 49 -112 89 -197 103 -67
11 -82 11 -141 0z"></path>
<path d="M4722 825 c-118 -26 -210 -103 -254 -214 -20 -49 -23 -73 -23 -196 1
-168 18 -224 96 -309 75 -82 126 -101 274 -101 116 0 123 1 187 33 37 18 79
47 94 65 147 174 126 534 -40 658 -86 65 -218 90 -334 64z m207 -134 c20 -14
44 -47 60 -80 23 -51 26 -67 26 -186 0 -100 -4 -142 -18 -182 -54 -155 -266
-178 -344 -37 -45 81 -53 262 -18 381 14 46 54 95 100 122 11 7 50 10 90 9 55
-3 77 -8 104 -27z"></path>
<path d="M5549 830 c-61 -11 -140 -52 -185 -97 -20 -20 -50 -66 -67 -102 -55
-116 -50 -291 11 -421 32 -67 110 -147 177 -180 45 -22 63 -25 170 -25 114 0
123 2 188 32 37 18 67 37 67 43 0 9 -26 67 -35 78 -1 1 -19 -5 -39 -13 -67
-28 -142 -37 -203 -25 -46 10 -65 21 -103 59 -66 66 -85 125 -85 266 0 100 2
115 28 167 59 119 195 144 277 51 l32 -36 64 18 c35 9 67 22 70 27 9 14 -37
75 -78 104 -67 47 -196 71 -289 54z"></path>
<path d="M3538 822 l-77 -3 -168 -191 -168 -192 -3 192 -2 192 -85 0 -85 0 0
-405 0 -405 85 0 85 0 0 205 c0 113 3 205 8 205 4 0 81 -93 171 -205 l165
-205 99 0 c78 0 97 3 90 12 -6 7 -83 104 -172 216 -102 128 -159 207 -154 215
4 6 68 84 142 172 74 88 141 167 148 177 19 22 11 24 -79 20z"></path>
<path d="M6603 820 l-83 -5 -159 -182 c-88 -101 -163 -187 -166 -193 -6 -9 96
-141 268 -348 l68 -82 94 0 c52 0 95 2 95 5 0 3 -73 97 -162 208 -88 111 -165
207 -169 213 -5 6 56 85 151 197 88 102 156 188 152 189 -4 2 -44 1 -89 -2z"></path>
<path d="M840 415 l0 -405 245 0 246 0 19 46 c11 25 23 57 26 70 l6 24 -188 2
-189 3 -3 333 -2 332 -80 0 -80 0 0 -405z"></path>
<path d="M1700 809 c0 -6 5 -19 10 -30 9 -15 -18 -87 -141 -382 -83 -199 -153
-368 -156 -374 -4 -10 15 -13 74 -13 l80 0 30 78 30 77 179 3 179 2 34 -80 33
-80 89 0 c49 0 89 4 89 9 0 5 -58 142 -128 303 -71 161 -148 339 -173 396
l-44 102 -92 0 c-59 0 -93 -4 -93 -11z m158 -346 c77 -183 83 -163 -52 -163
-64 0 -116 4 -116 8 0 20 106 272 114 272 2 0 26 -53 54 -117z"></path>
<path d="M6012 418 l3 -403 83 -3 82 -3 0 406 0 405 -85 0 -85 0 2 -402z"></path>
<path d="M6808 791 c-29 -26 -33 -35 -33 -81 0 -46 4 -55 33 -81 60 -54 151
-34 182 40 45 110 -93 202 -182 122z m136 -17 c29 -29 35 -86 13 -115 -54 -70
-157 -37 -157 51 0 82 87 121 144 64z"></path>
<path d="M6847 773 c-11 -10 -8 -121 3 -128 6 -3 10 5 10 19 0 37 16 40 40 6
25 -35 48 -31 25 4 -14 21 -14 25 0 36 19 16 19 34 -1 54 -15 16 -65 22 -77 9z
m61 -36 c2 -11 -3 -17 -17 -17 -23 0 -35 15 -26 31 10 15 39 6 43 -14z"></path>
</g>
</svg>