<svg xmlns="http://www.w3.org/2000/svg" viewBox="0 327.6 612 133.5"><path fill="#232020" d="M161.8 334.05v-.4h-2.5V451.25h2.5v-117.2z"/><path fill="#EB2B2D" d="M98.36 368.7c-.203-.082-.284-.203-.445-.284-3.193-1.9-7.195-2.91-12.005-3.193H64.164V383.695c0 2.628 0 5.295-.081 7.842V423.186H85.99c4.567-.283 8.286-1.293 11.196-2.991h.081v-.08s0-.082-.08-.082c.282-.283.646-.444.888-.444h.081c.283-.202.566-.364.809-.566v-.081h-.081v-.08c.202-.203.283-.284.364-.203v.08c.283-.16.646-.444.889-.727v-.08h-.08c-.082 0-.203-.081-.203-.284.202-.161.283-.08.364.203v.08c.202-.161.364-.363.566-.525v-.08c.08-.082 0-.284 0-.446.202 0 .283 0 .283.162v.081c.202-.08.363-.162.444-.364v-.161s0-.081-.08-.081c.08-.081.201-.202.282-.081h.081c2.547-2.547 4.366-5.74 5.74-9.54.08-.363.283-.808.364-1.252h-.081c-.202.283-.283.161-.202-.283.08.08.202.08.283.08v.081c1.172-3.92 1.616-8.448 1.536-13.662v-.364V390.688c0-.283 0-.525-.081-.647v.081c-.202.283-.202.202-.202-.364h.161c-.202-2.102-.444-4.163-.889-5.982-.89-4.082-2.546-7.559-4.81-10.388v.08c-.202.082-.283 0-.283-.16h.081v-.162c-.566-.526-1.091-1.173-1.617-1.739v.081c.081.445 0 .364-.283-.161h.081v-.081a14.196 14.196 0 0 0-2.83-2.183v.08c-.323 0-.484-.201-.404-.444-.08 0-.08 0 0 0m-9.903-3.112h-.202c-.364.08-.566 0-.646-.162.565.081.848.081.848.162m-1.819-.081c.445.08.445.08 0 0 0 .08 0 0 0 0m-4.729 13.38h.727v-.082h.81c2.344.081 3.92 1.01 4.728 2.628h.081v-.081c.202-.162.283-.081.081.283h-.08c0 .161.08.283.201.364v.08c.283-.202.364 0 .283.445 1.173 2.91 1.82 6.467 1.9 10.469v.08c.08.082.08.365.08.648V395.053c.082.283.082.647 0 1.01v.082c0 3.638-.444 6.83-1.535 9.458v.161h.08c.082.082.082.163-.201.284h-.081c-1.092 2.546-3.436 3.84-7.074 3.718v-.444-15.198-15.239m-17.744-3.112s0-.081 0 0c.08 2.465.08 5.012.08 7.64v.08c-.08-2.546-.08-5.093-.08-7.72m17.461 3.638c.081 5.012.202 10.024.081 15.117v14.753c-.08-5.012-.202-10.024-.08-15.117v-14.753m21.18-6.548c.444 0 .444.08 0 0m4.81 8.65c.08.363.202.646 0 .646v-.08-.566m-16.613 13.621c-.121 0-.121-.08 0 0 0 .647 0 .647 0 0m18.068 1.94c.121.728.121.728 0 0 0 .081 0 .081 0 0M64.083 408.07c0-.081 0-.081 0 0 .08 2.263.08 4.729.08 7.276v.08c-.08-2.344-.08-4.81-.08-7.356m56.386 28.456c0 .283 0 .444-.08.647.283 4.729 2.91 7.194 7.72 7.275.808 0 1.536-.08 2.183-.363 2.748-1.011 4.284-3.113 4.729-6.266v-.08V436.565c-.566-3.921-2.91-6.104-6.912-6.549H127.22c-3.719.526-6.023 2.547-6.75 6.104V436.524m12.247-69.927c-1.82-3.274-3.84-6.265-6.104-9.013-2.263-2.83-4.81-5.376-7.558-7.64s-5.74-4.365-9.014-6.184a55.702 55.702 0 0 0-10.63-4.527c-3.84-1.173-8.085-1.981-12.733-2.345h-.081c-.364 0-.566 0-.728-.08h-.605c-.284 0-.567 0-.648-.081H78.11c-4.204.283-8.004.889-11.358 1.9a60.26 60.26 0 0 0-10.914 4.365c-3.355 1.738-6.386 3.718-9.175 5.982s-5.457 4.73-7.842 7.437c-2.385 2.749-4.446 5.66-6.386 8.933-1.82 3.194-3.436 6.63-4.73 10.47-1.253 3.718-2.182 7.922-2.83 12.368V388.99c0 .283 0 .445-.08.647v.445c0 .283 0 .525-.08.646v1.617c0 .809 0 1.738-.082 2.628v1.737c.081.162.081.364.081.647v.606c.081.203.081.364.081.647v.081c.364 4.73 1.172 8.933 2.466 12.814 1.253 3.8 2.748 7.356 4.527 10.63 1.819 3.274 3.84 6.265 6.184 9.014a56.845 56.845 0 0 0 7.64 7.64 64.546 64.546 0 0 0 9.013 6.184c3.274 1.819 6.831 3.274 10.631 4.567 3.719 1.172 7.842 1.98 12.288 2.345H85.1v-.081h1.415v-.081h.727c4.65-.364 8.893-1.172 12.652-2.466 3.84-1.293 7.357-2.83 10.55-4.648.89-.525 1.738-1.01 2.627-1.536v-4.285c0-5.093 0-10.186-.08-15.117a56.74 56.74 0 0 1-4.932 4.366c-2.91 2.182-6.103 4.082-9.66 5.537-3.557 1.536-7.64 2.466-12.288 2.91H83.121c-.647.081-1.172.081-1.617 0h-.97c-.283 0-.566 0-.647-.08H79.08c-.283 0-.445 0-.647-.081-.445-.081-.89-.081-1.374-.162-4.568-.566-8.448-1.657-11.924-3.193-3.476-1.657-6.63-3.557-9.459-5.82-2.83-2.264-5.254-4.81-7.477-7.721-2.183-2.91-4.002-6.104-5.538-9.741-1.455-3.557-2.466-7.64-2.83-12.369v-.889-.445-.97-2.101-1.092h.081v-.081-.525-.647h.081v-.081-.364c.566-4.527 1.536-8.65 2.991-12.207 1.455-3.557 3.355-6.831 5.538-9.62a42.279 42.279 0 0 1 7.478-7.72 42.431 42.431 0 0 1 9.539-5.74c3.557-1.536 7.478-2.547 11.924-3.112.647-.081 1.172-.162 1.738-.162v-.08h1.172v-.082H85.991c4.648.445 8.73 1.375 12.288 2.83 3.557 1.455 6.83 3.274 9.74 5.456a43.432 43.432 0 0 1 7.721 7.438c2.264 2.83 4.164 5.982 5.74 9.458 1.536 3.436 2.627 7.438 3.274 11.924.08.728.202 1.375.202 2.102.081.162.081.445.081.728V392.143c.08 1.01.08 2.021 0 3.113V396.063c0 .365 0 .567-.08.728-.203 2.183-.446 4.285-.89 6.185-1.01 4.082-2.345 7.72-4.163 10.994-1.82 3.274-3.921 6.185-6.387 8.812v.08c5.012.082 10.024.162 15.117.162 1.253 0 2.547-.08 3.638-.161 1.9-3.193 3.557-6.63 4.81-10.388a64.579 64.579 0 0 0 2.83-12.369c.08-.728.202-1.455.202-2.264v-.08-.728h.08v-.08-.526-.889-1.092h.082v-.08-1.173-1.616-1.092V389.678c-.081-.364-.081-.809-.081-1.294v-.647c-.445-4.001-1.173-7.64-2.264-10.994-1.819-3.315-3.395-6.872-5.214-10.146z"/><path fill="#808384" d="M27.713 446.13a4.56 4.56 0 0 0 1.334 3.234c.89.89 1.9 1.334 3.234 1.334 1.172 0 2.223-.445 3.113-1.334s1.333-1.9 1.333-3.234a4.56 4.56 0 0 0-1.333-3.234c-.89-.889-1.9-1.172-3.113-1.172-1.172 0-2.345.445-3.234 1.172-.89.89-1.334 1.9-1.334 3.234m1.779 2.83c-.728-.728-1.173-1.617-1.173-2.79 0-1.05.445-1.9 1.173-2.789.727-.727 1.617-1.172 2.789-1.172 1.05 0 1.9.445 2.668 1.172.727.728 1.172 1.779 1.172 2.79s-.445 2.061-1.172 2.789c-.728.727-1.617 1.172-2.668 1.172-1.172-.162-2.062-.445-2.79-1.172m.85-5.336v4.85h.889v-1.9h.728c.444 0 .727 0 1.05.163.283.161.445.606.445 1.172v.606h.89v-1.05c0-.163-.162-.446-.283-.728-.162-.283-.445-.445-.89-.445.283-.162.607-.162.728-.283.283-.162.444-.606.444-1.051 0-.606-.282-1.051-.727-1.172-.283-.162-.728-.162-1.334-.162h-1.94m.889.606h.728c.444 0 .889 0 1.05.162.162.162.283.283.283.728 0 .444-.161.606-.444.889h-1.779v-1.779h.162z"/><g fill="#fff"><path d="M552.95 397.65c0-.3 0-.3 0 0-1.1-12.1-7.6-18.9-19.2-20H529.75c-11 1.4-17.2 7.6-18.9 18.6v5.6c.6 12.7 6.8 19.8 18.6 21.2h6.2v-.3c10.4-1.7 16.1-8.2 17.5-19.2v-.6-2h.3v-.3-1.1c-.5-.8-.5-1.3-.5-1.9m-19.8-14.4c2.3 0 4 .3 5.4 1.4 4.5 2.5 6.8 7.1 7.6 13.6.3 1.1.3 2.3 0 3.7-.6 6.2-2.8 10.4-6.8 13.3-2.5 1.7-5.6 2.3-9.6 1.4-8.8-1.4-12.7-7.6-12.4-18.4.6-9.6 6-14.7 15.8-15m-60.7 15s0 .2 0 0V401.35c.8 12.4 7.3 19.8 19.2 21.5h8.8v-.3c2.5 0 4.2-.6 5.1-2 .3-.3.3-.8.3-1.1v-.6-2c0-.3 0-.8-.3-1.1-.3-.6-.8-.6-2 0-3.4 1.4-7.3 1.7-11.6.8-8.5-1.7-12.7-7.9-12.7-18.4 1.1-10.2 7.3-15 18.4-15 2.3 0 4.2.3 5.9 1.1.6.3 1.1.6 1.7.8.3-2 .3-4 .6-5.9v-.3c-2-1.1-4.8-1.7-7.9-2h-4.3c-12.4 1.1-19.5 7.6-21.5 19.5.3 1 .3 1.3.3 1.9zM610.05 378.15s-.3 0 0 0h-10.4c-.6 2-1.4 4-2 5.9-3.7 10.2-7.6 20.3-11.3 30.2-.8-2-1.7-4-2.5-6.2-3.7-10.2-7.6-20.3-11.6-30.2H562.05v44h6.2V384.25c4 9.9 7.6 20 11.6 29.9.8 2.5 2 5.1 3.1 7.6h6.2c4-9.9 7.6-20.1 11.6-30.2.8-2.3 1.7-4.8 2.5-7.3v-.3c.6-.3.8.6.8 2.3-.3 11.9-.3 23.4-.3 35.3h6.2v-2.5c.1-13.2.1-27 .1-40.9m-343.7 18.7c-1.1-12.1-7.9-18.6-20-19.5h-4.3c-11.3 1.1-18.1 6.8-19.8 17.5v8.5c1.1 11.3 7.1 17.5 17.8 19.2H247.95v-.3c11-1.4 16.9-7.9 18.1-18.9v-.6-2h.3v-.3-1.7-1.9m-23.2-10.8s.3 0 0 0c.3 0 .3 0 0 0 .8-.3 1.7-.3 2.3 0 5.1 1.1 8.2 4.5 8.8 10.2.8 8.5-1.1 13.8-6.2 16.9-1.1.6-2.5.8-4.5.3-6.8-1.4-9.6-6.8-9-16.1.4-6.2 3.3-9.9 8.6-11.3m211.3 35.9c3.4.3 7.1.3 10.4.3h.3V412.05H454.45v9.9zM217.15 397.65c0-.3 0-.3 0 0-1.1-12.4-8.2-18.6-20.9-19.2h-.3c-.8 0-1.4 0-1.7-.3h-19.2v44h18.7v-.3h2c13-.6 20.3-7.3 21.5-19.8v-.6c-.1-1.3-.1-2.4-.1-3.8m-18-9.3c3.1 1.7 4.8 4.5 5.4 8.5 1.4 12.1-4.5 17.8-17.5 16.4v-.3-26.3h1.1v-.3h4c3 .6 5.3 1.1 7 2m129-10.2s-.3 0 0 0h-17.8c-3.1 9.9-6.2 19.5-9.6 29.1-3.1-9.6-6.2-19.5-9.3-29.1H273.05v44h11.3V419.05v-8.5-7.6V395.05v-6.5c3.4 10.4 6.8 20.9 10.2 31.3.3.6.3 1.1.6 2h11c3.4-10.4 7.1-20.6 10.4-31.1.3-.6.3-1.1.6-1.7v-.6c.6-.3.6.3.6 2V396.35c0 3.7 0 7.1-.3 10.2v15.3H329.05v-2.5c-.9-13.5-.9-27.3-.9-41.2m39.3 44.1h12.7c-1.7-4.8-3.4-9.6-5.4-14.1-4-9.9-7.6-20.1-11.6-29.9H348.45c-1.7 4.5-3.1 9-5.1 13.6-4 9.9-7.6 20.1-11.6 29.9 1.4.6 3.4.8 5.6.6 2 0 4.2-.3 6.2-.3 1.4-2.8 2.5-5.9 3.7-9.3v-.3h16.4c1.2 3.6 2.4 6.7 3.8 9.8m-11.6-35c0 .2 0 .2 0 0 1.7 5.6 3.4 11.3 5.1 16.9-2.3 0-4.8 0-7.1.3-1.7 0-2.8-.3-3.4-.8 1.1-2.5 2-5.4 2.8-8.2v-.3h-.3c-.3 0-.3-.3-.3-.6.3-.3.3-.3.6 0 .9-2.5 1.7-5.1 2.6-7.3m40.9-9.1s-.2 0 0 0h-11.9v44h11.9v-2.5-41.5m49.2 2.6v-2.5H435.25v10.8c0 6.5 0 12.7-.3 18.9-.3-.6-.6-1.1-.8-1.7-4.5-9-9.3-18.4-13.8-27.7h-15.3v44h11v-7.6-4.8-5.1-9.3-3.1h.3c4.5 9.3 9.3 18.4 14.1 27.7.3.6.6 1.4 1.1 2.3H446.25c-.3-14.3-.3-28.1-.3-41.9z"/></g></svg>