<svg xmlns="http://www.w3.org/2000/svg" version="1" width="1024" height="120" viewBox="0 0 151.28624 17.696394"><path d="M96.281 0c-1.113-.026-2.337.217-3.312.844L75.094 13.188a2.498 2.498 0 0 0-.969 1.968 2.528 2.528 0 0 0 2.531 2.531c.615 0 1.185-.2 1.625-.562l5.563-3.906h24.219l5.562 3.906c.435.35.992.563 1.594.563a2.528 2.528 0 0 0 1.5-4.563L98.938.781C98.38.33 97.394.026 96.28 0zm16.563.531a2.529 2.529 0 0 0-2.531 2.531c0 1.057.645 1.963 1.562 2.344l16.438 6.032.03 3.718c0 1.402 1.07 2.531 2.47 2.531a2.529 2.529 0 0 0 2.53-2.53l-.062-3.72 16.438-6.03a2.534 2.534 0 0 0 1.562-2.345 2.529 2.529 0 0 0-2.531-2.53c-.327 0-.621.044-.906.155l-17.031 6.188L113.78.687a2.615 2.615 0 0 0-.937-.156zM8.563.562A8.564 8.564 0 0 0 0 9.126a8.566 8.566 0 0 0 8.563 8.563h24.343c1.388 0 2.532-1.116 2.532-2.5a2.546 2.546 0 0 0-2.532-2.532H8.563c-1.957 0-3.313-1.575-3.313-3.531 0-1.956 1.356-3.531 3.313-3.531h24.343a2.546 2.546 0 0 0 2.532-2.532c0-1.386-1.144-2.5-2.532-2.5H8.563zm31.656 0c-1.32 0-2.5 1.042-2.5 2.157l.031 12.437c0 1.402 1.039 2.531 2.438 2.531 1.4 0 2.562-1.13 2.562-2.53V13.78h22.031l2.875 3.031a2.52 2.52 0 0 0 1.906.875A2.529 2.529 0 0 0 71.5 13.53l-2.125-2.187a5.991 5.991 0 0 0 2.281-4.719c0-3.344-2.69-6.063-6.031-6.063H40.219zm55.656 4.594c.382-.026.77.065 1.188.344l5.5 3.844h-13.22l5.438-3.781c.348-.244.712-.38 1.094-.407zm-53.156.438h22.625c.87 0 1.562.724 1.562 1.593 0 .87-.692 1.563-1.562 1.563l-22.625.031V5.594z" fill="#005596"/></svg>