 <svg version="1.0" xmlns="http://www.w3.org/2000/svg" width="700.000000pt" height="205.000000pt" viewBox="0 0 700.000000 205.000000" preserveAspectRatio="xMidYMid meet">
<metadata>
Created by potrace 1.12, written by Peter Selinger 2001-2015
</metadata>
<g transform="translate(0.000000,205.000000) scale(0.100000,-0.100000)" fill="#fff" stroke="none">
<path d="M741 1930 c-244 -34 -417 -152 -515 -351 -58 -117 -90 -245 -106
-418 -27 -293 19 -566 124 -740 51 -83 159 -182 248 -225 132 -65 207 -79 423
-80 175 0 198 2 287 26 54 15 130 44 170 65 l73 38 3 445 c2 409 1 446 -15
458 -24 17 -583 18 -601 0 -17 -17 -17 -299 0 -316 8 -8 50 -12 125 -12 l113
0 0 -170 0 -170 -27 -7 c-58 -15 -245 -9 -300 10 -114 40 -194 149 -228 312
-23 106 -24 341 -2 443 41 189 138 296 299 332 87 20 324 8 412 -20 38 -12 72
-18 77 -13 17 17 78 298 67 310 -15 19 -107 50 -199 68 -101 19 -339 27 -428
15z"></path>
<path d="M3115 1858 c-3 -7 -4 -395 -3 -863 l3 -850 160 -3 c88 -1 170 0 182
3 l23 5 2 368 3 367 245 0 245 0 3 -367 2 -368 23 -5 c12 -3 94 -4 182 -3
l160 3 0 860 0 860 -180 0 -180 0 -3 -317 -2 -318 -250 0 -250 0 -2 318 -3
317 -178 3 c-136 2 -179 0 -182 -10z"></path>
<path d="M5766 1854 c-3 -8 -6 -392 -6 -853 0 -638 3 -840 12 -849 17 -17 242
-17 256 1 6 6 13 24 17 40 4 15 9 27 11 27 2 0 32 -16 66 -35 177 -97 454 -98
580 -2 84 64 131 150 166 302 23 103 23 435 -1 528 -37 145 -103 241 -204 295
-113 60 -275 67 -416 17 -40 -14 -80 -28 -89 -31 -16 -6 -18 14 -20 282 l-3
289 -181 3 c-159 2 -182 0 -188 -14z m654 -826 c80 -55 105 -141 97 -333 -6
-157 -25 -217 -77 -253 -32 -21 -44 -23 -125 -20 -65 3 -103 9 -137 25 l-48
22 0 264 0 265 48 20 c63 27 76 29 148 31 48 1 68 -4 94 -21z"></path>
<path d="M1719 1807 c-24 -13 -57 -43 -74 -66 -27 -38 -30 -51 -30 -116 0 -65
3 -78 30 -116 118 -167 375 -88 375 116 0 158 -161 256 -301 182z"></path>
<path d="M2317 1654 c-4 -4 -7 -82 -7 -174 l0 -167 -92 -24 -93 -24 0 -125 0
-125 93 -3 92 -3 0 -257 c0 -141 5 -288 10 -327 21 -146 103 -247 234 -287 84
-26 258 -30 341 -7 l50 14 0 135 0 135 -95 5 c-168 10 -171 16 -168 342 l3
243 130 5 130 5 0 150 0 150 -130 5 -130 5 -5 165 -5 165 -176 3 c-96 1 -178
-1 -182 -4z"></path>
<path d="M1637 1314 c-4 -4 -7 -265 -7 -580 0 -557 1 -574 19 -584 31 -16 326
-13 340 4 8 9 10 172 9 587 l-3 574 -176 3 c-96 1 -178 -1 -182 -4z"></path>
<path d="M4517 1313 c-4 -3 -7 -199 -7 -435 0 -480 5 -529 63 -615 70 -102
159 -143 332 -151 130 -5 232 16 352 73 l73 34 6 -27 c3 -15 7 -33 10 -40 5
-18 227 -17 243 2 8 9 10 172 9 587 l-3 574 -180 0 -180 0 -3 -421 -2 -422
-43 -20 c-61 -29 -153 -44 -201 -32 -22 5 -51 20 -65 35 l-26 25 -5 418 c-3
229 -7 418 -8 420 -5 5 -359 1 -365 -5z"></path>
</g>
</svg>