<svg xmlns="http://www.w3.org/2000/svg" viewBox="0 0 399.37 360.39"><defs><style>.cls-1{fill:#ed8eb7;}.cls-1,.cls-2,.cls-3,.cls-4,.cls-5{stroke:#ed1973;stroke-linecap:round;stroke-linejoin:round;}.cls-2{fill:#9988f8;}.cls-3{fill:#755ef8;}.cls-4{fill:#fff;}.cls-5{fill:#b8aef8;}</style></defs><title>Asset 7</title><g id="Layer_2" data-name="Layer 2"><g id="letters"><path class="cls-1" d="M394,242.7a13.49,13.49,0,1,0-25.91-5.27,13.58,13.58,0,0,0,1.06,5.27,17.33,17.33,0,1,0,24.85,0Z"/><line class="cls-1" x1="381.55" y1="252.43" x2="381.55" y2="287.43"/><path class="cls-1" d="M373.67,195.14a13.49,13.49,0,1,0-24.84,0,17.32,17.32,0,1,0,24.84,0Z"/><line class="cls-1" x1="361.25" y1="204.87" x2="361.25" y2="239.87"/><path class="cls-1" d="M64.89,132.71a13.5,13.5,0,1,0-24.85,0,17.33,17.33,0,1,0,24.85,0Z"/><line class="cls-1" x1="52.47" y1="142.44" x2="52.47" y2="177.44"/><polygon class="cls-2" points="147.33 0.5 135.56 20.88 147.33 27.68 147.33 0.5"/><polygon class="cls-3" points="147.33 0.5 159.1 20.88 147.33 27.68 147.33 0.5"/><polygon class="cls-4" points="135.56 20.88 135.56 158.41 147.33 165.21 147.33 27.68 135.56 20.88"/><polygon class="cls-2" points="159.1 20.88 147.33 27.68 147.33 165.21 159.1 158.41 159.1 20.88"/><polygon class="cls-5" points="349.48 117.37 337.71 137.75 349.48 144.55 349.48 117.37"/><polygon class="cls-3" points="349.48 117.37 361.25 137.75 349.48 144.55 349.48 117.37"/><polygon class="cls-4" points="337.71 137.75 337.71 275.29 349.48 282.08 349.48 144.55 337.71 137.75"/><polygon class="cls-2" points="361.25 137.75 349.48 144.55 349.48 282.08 361.25 275.29 361.25 137.75"/><polygon class="cls-4" points="64.2 69.34 64.2 192.87 278.16 316.4 278.16 192.92 64.2 69.34"/><polygon class="cls-5" points="99.86 21.98 313.82 145.51 278.16 192.87 64.2 69.34 99.86 21.98"/><polygon class="cls-5" points="99.86 76.54 88.09 96.93 99.86 103.72 99.86 76.54"/><polygon class="cls-2" points="99.86 76.54 111.63 96.93 99.86 103.72 99.86 76.54"/><polygon class="cls-4" points="88.09 96.93 88.09 220.05 99.86 226.84 99.86 103.72 88.09 96.93"/><polygon class="cls-5" points="111.63 96.93 99.86 103.72 99.86 226.84 111.63 220.04 111.63 96.93"/><polygon class="cls-5" points="64.22 41.67 52.46 62.05 64.22 68.85 64.22 41.67"/><polygon class="cls-2" points="64.22 41.67 75.99 62.05 64.22 68.85 64.22 41.67"/><polygon class="cls-4" points="52.46 62.05 52.46 199.58 64.22 206.38 64.22 68.85 52.46 62.05"/><polygon class="cls-5" points="75.99 62.05 64.22 68.85 64.22 206.38 75.99 199.58 75.99 62.05"/><polygon class="cls-5" points="135.52 97.13 123.75 117.51 135.52 124.31 135.52 97.13"/><polygon class="cls-2" points="135.52 97.13 147.29 117.51 135.52 124.31 135.52 97.13"/><polygon class="cls-4" points="123.75 117.51 123.75 240.63 135.52 247.43 135.52 124.31 123.75 117.51"/><polygon class="cls-5" points="147.29 117.51 135.52 124.31 135.52 247.43 147.29 240.63 147.29 117.51"/><polygon class="cls-5" points="171.18 117.72 159.41 138.1 171.18 144.9 171.18 117.72"/><polygon class="cls-2" points="171.18 117.72 182.95 138.1 171.18 144.9 171.18 117.72"/><polygon class="cls-4" points="159.41 138.1 159.41 261.22 171.18 268.02 171.18 144.9 159.41 138.1"/><polygon class="cls-5" points="182.95 138.1 171.18 144.9 171.18 268.02 182.95 261.22 182.95 138.1"/><polygon class="cls-5" points="206.84 138.31 195.07 158.69 206.84 165.48 206.84 138.31"/><polygon class="cls-2" points="206.84 138.31 218.61 158.69 206.84 165.48 206.84 138.31"/><polygon class="cls-4" points="195.07 158.69 195.07 281.81 206.84 288.6 206.84 165.48 195.07 158.69"/><polygon class="cls-5" points="218.61 158.69 206.84 165.48 206.84 288.6 218.61 281.81 218.61 158.69"/><polygon class="cls-5" points="242.5 158.9 230.73 179.28 242.5 186.07 242.5 158.9"/><polygon class="cls-2" points="242.5 158.9 254.27 179.28 242.5 186.07 242.5 158.9"/><polygon class="cls-4" points="230.73 179.28 230.73 302.4 242.5 309.19 242.5 186.07 230.73 179.28"/><polygon class="cls-5" points="254.27 179.28 242.5 186.07 242.5 309.19 254.27 302.4 254.27 179.28"/><polygon class="cls-3" points="99.86 21.98 135.52 28.16 349.48 151.69 313.82 145.51 99.86 21.98"/><path class="cls-5" d="M88.13,183.41c0-4.47-2.72-9.67-6.07-11.6S76,171.93,76,176.4q0,.32,0,.63v18.26l12.09,7V184C88.12,183.81,88.13,183.61,88.13,183.41Z"/><polygon class="cls-2" points="88.11 199.53 88.11 202.28 76.02 195.29 78.45 193.89 88.11 199.53"/><path class="cls-3" d="M79.45,171.09s-3.43,0-3.43,5.36v18.84l2.43-1.4V175A6.76,6.76,0,0,1,79.45,171.09Z"/><path class="cls-5" d="M88.13,107.89c0-4.47-2.72-9.66-6.07-11.59S76,96.42,76,100.88q0,.32,0,.63v55.67l12.09,7V108.5C88.12,108.3,88.13,108.1,88.13,107.89Z"/><polygon class="cls-2" points="88.11 161.42 88.11 164.16 76.02 157.18 78.45 155.78 88.11 161.42"/><path class="cls-3" d="M79.45,95.57s-3.43,0-3.43,5.36v56.25l2.43-1.4V99.53A6.78,6.78,0,0,1,79.45,95.57Z"/><path class="cls-5" d="M123.76,204c0-4.47-2.71-9.66-6.07-11.59s-6.07.11-6.07,4.58c0,.21,0,.42,0,.63v18.27l12.09,7V204.55C123.75,204.36,123.76,204.16,123.76,204Z"/><polygon class="cls-2" points="123.74 220.07 123.74 222.82 111.65 215.84 114.08 214.44 123.74 220.07"/><path class="cls-3" d="M115.08,191.63s-3.43,0-3.43,5.36v18.85l2.43-1.4V195.59A6.78,6.78,0,0,1,115.08,191.63Z"/><path class="cls-5" d="M123.76,128.44c0-4.47-2.71-9.66-6.07-11.6s-6.07.12-6.07,4.59c0,.21,0,.42,0,.63v55.67l12.09,7V129C123.75,128.84,123.76,128.65,123.76,128.44Z"/><polygon class="cls-2" points="123.74 181.97 123.74 184.71 111.65 177.73 114.08 176.33 123.74 181.97"/><path class="cls-3" d="M115.08,116.12s-3.43,0-3.43,5.36v56.25l2.43-1.4V120.07A6.76,6.76,0,0,1,115.08,116.12Z"/><path class="cls-5" d="M159.42,224.57c0-4.47-2.72-9.66-6.07-11.6s-6.07.12-6.07,4.59q0,.31,0,.63v18.27l12.09,7V225.17C159.41,225,159.42,224.78,159.42,224.57Z"/><polygon class="cls-2" points="159.4 240.69 159.4 243.44 147.31 236.46 149.74 235.05 159.4 240.69"/><path class="cls-3" d="M150.74,212.25s-3.43,0-3.43,5.36v18.85l2.43-1.41V216.21A6.78,6.78,0,0,1,150.74,212.25Z"/><path class="cls-5" d="M159.42,149.06c0-4.47-2.72-9.66-6.07-11.6s-6.07.12-6.07,4.59q0,.31,0,.63v55.67l12.09,7V149.66C159.41,149.46,159.42,149.26,159.42,149.06Z"/><polygon class="cls-2" points="159.4 202.58 159.4 205.33 147.31 198.35 149.74 196.94 159.4 202.58"/><path class="cls-3" d="M150.74,136.74s-3.43,0-3.43,5.36v56.25l2.43-1.41V140.69A6.76,6.76,0,0,1,150.74,136.74Z"/><path class="cls-5" d="M195.08,245.2c0-4.47-2.72-9.66-6.07-11.6s-6.07.12-6.07,4.59q0,.31,0,.63v18.26l12.09,7V245.8C195.07,245.6,195.08,245.4,195.08,245.2Z"/><polygon class="cls-2" points="195.06 261.32 195.06 264.07 182.97 257.08 185.4 255.68 195.06 261.32"/><path class="cls-3" d="M186.4,232.88s-3.43,0-3.43,5.36v18.84l2.43-1.4V236.83A6.76,6.76,0,0,1,186.4,232.88Z"/><path class="cls-5" d="M195.08,169.68c0-4.47-2.72-9.66-6.07-11.59s-6.07.12-6.07,4.59q0,.3,0,.63V219l12.09,7V170.29C195.07,170.09,195.08,169.89,195.08,169.68Z"/><polygon class="cls-2" points="195.06 223.21 195.06 225.96 182.97 218.97 185.4 217.57 195.06 223.21"/><path class="cls-3" d="M186.4,157.36s-3.43,0-3.43,5.36V219l2.43-1.4V161.32A6.78,6.78,0,0,1,186.4,157.36Z"/><path class="cls-5" d="M230.74,265.71c0-4.47-2.72-9.66-6.07-11.59s-6.07.11-6.07,4.58q0,.32,0,.63V277.6l12.09,7V266.31C230.73,266.12,230.74,265.92,230.74,265.71Z"/><polygon class="cls-2" points="230.72 281.83 230.72 284.58 218.63 277.6 221.06 276.2 230.72 281.83"/><path class="cls-3" d="M222.06,253.39s-3.43,0-3.43,5.36V277.6l2.43-1.4V257.35A6.78,6.78,0,0,1,222.06,253.39Z"/><path class="cls-5" d="M230.74,190.2c0-4.47-2.72-9.66-6.07-11.6s-6.07.12-6.07,4.59q0,.31,0,.63v55.67l12.09,7V190.8C230.73,190.6,230.74,190.41,230.74,190.2Z"/><polygon class="cls-2" points="230.72 243.72 230.72 246.47 218.63 239.49 221.06 238.09 230.72 243.72"/><path class="cls-3" d="M222.06,177.88s-3.43,0-3.43,5.36v56.25l2.43-1.41V181.83A6.76,6.76,0,0,1,222.06,177.88Z"/><path class="cls-5" d="M266.4,286.38c0-4.47-2.72-9.66-6.07-11.59s-6.07.12-6.07,4.59q0,.3,0,.63v18.26l12.09,7V287C266.39,286.79,266.4,286.59,266.4,286.38Z"/><polygon class="cls-2" points="266.38 302.51 266.38 305.25 254.29 298.27 256.72 296.87 266.38 302.51"/><path class="cls-3" d="M257.72,274.06s-3.43,0-3.43,5.36v18.85l2.43-1.4V278A6.78,6.78,0,0,1,257.72,274.06Z"/><path class="cls-5" d="M266.4,210.87c0-4.47-2.72-9.66-6.07-11.6s-6.07.12-6.07,4.59q0,.31,0,.63v55.67l12.09,7V211.47C266.39,211.28,266.4,211.08,266.4,210.87Z"/><polygon class="cls-2" points="266.38 264.4 266.38 267.14 254.29 260.16 256.72 258.76 266.38 264.4"/><path class="cls-3" d="M257.72,198.55s-3.43,0-3.43,5.36v56.25l2.43-1.4V202.51A6.78,6.78,0,0,1,257.72,198.55Z"/><polygon class="cls-5" points="313.82 192.77 313.82 322.47 278.16 322.57 278.16 192.87 313.82 192.77"/><polygon class="cls-2" points="313.82 322.47 349.48 301.88 349.48 172.18 313.82 192.77 313.82 322.47"/><polygon class="cls-5" points="313.82 145.51 313.82 192.77 278.16 192.87 313.82 145.51"/><polygon class="cls-3" points="313.82 145.51 349.48 172.18 349.48 151.59 313.82 145.51"/><polygon class="cls-5" points="278.16 165.38 266.39 185.77 278.16 192.56 278.16 165.38"/><polygon class="cls-2" points="278.16 165.38 289.93 185.77 278.16 192.56 278.16 165.38"/><polygon class="cls-4" points="266.39 185.77 266.39 323.3 278.16 330.09 278.16 192.56 266.39 185.77"/><polygon class="cls-5" points="289.93 185.77 278.16 192.56 278.16 330.09 289.93 323.3 289.93 185.77"/><polygon class="cls-2" points="313.82 145.51 313.82 192.77 349.48 172.18 313.82 145.51"/><path class="cls-3" d="M301.87,288.57a8,8,0,0,0-8,8v21.56h16V296.59A8,8,0,0,0,301.87,288.57Z"/><rect class="cls-5" x="293.86" y="315.76" width="16.03" height="2.39"/><path class="cls-3" d="M301.87,208.12a8,8,0,0,0-8,8v61.91h16V216.14A8,8,0,0,0,301.87,208.12Z"/><rect class="cls-5" x="293.86" y="275.67" width="16.03" height="2.38"/><path class="cls-2" d="M320,220c0-9.11,5.49-20.91,12.32-24.85s12.31.34,12.31,9.44c0,.42,0,.72,0,1.18V243L320,257.19V220C319.94,219.58,320,220.41,320,220Z"/><polygon class="cls-5" points="319.96 254.48 319.96 257.19 344.59 242.97 342.12 241.55 319.96 254.48"/><path class="cls-4" d="M342.12,201.72v39.83l2.47,1.42V204.58c0-5.79-1.91-8.46-3.76-9.74,0,0,1.29,1.88,1.29,6.88"/><polygon class="cls-2" points="344.58 253.06 319.94 267.29 326.1 270.84 350.75 256.61 344.58 253.06"/><polygon class="cls-4" points="319.94 267.29 319.94 318.99 326.1 322.54 326.1 270.84 319.94 267.29"/><polygon class="cls-3" points="326.1 322.54 326.1 270.84 350.75 256.61 350.75 308.31 326.1 322.54"/><path class="cls-2" d="M329.94,288.61c0-6.69,4-15.37,9.05-18.27s9.05.25,9.05,6.94c0,.31,0,.53,0,.87v27.36L329.94,316V288.61C329.92,288.31,329.94,288.92,329.94,288.61Z"/><polygon class="cls-5" points="329.94 313.97 329.94 315.96 348.04 305.51 346.23 304.46 329.94 313.97"/><path class="cls-4" d="M346.23,275.18v29.28l1.81,1.05V277.28c0-4.25-1.41-6.22-2.76-7.16,0,0,1,1.38,1,5.06"/><path class="cls-1" d="M30.25,152.5a13.5,13.5,0,1,0-24.85,0,17.33,17.33,0,1,0,24.85,0Z"/><line class="cls-1" x1="17.83" y1="162.23" x2="17.83" y2="197.23"/><path class="cls-1" d="M47.57,184a13.49,13.49,0,1,0-25.91-5.27A13.58,13.58,0,0,0,22.72,184a17.33,17.33,0,1,0,24.85,0Z"/><line class="cls-1" x1="35.15" y1="193.69" x2="35.15" y2="228.69"/><path class="cls-1" d="M394,285.16a13.49,13.49,0,1,0-25.91-5.27,13.58,13.58,0,0,0,1.06,5.27,17.33,17.33,0,1,0,24.85,0Z"/><line class="cls-1" x1="381.55" y1="294.89" x2="381.55" y2="329.89"/><path class="cls-1" d="M272.73,315.16a13.5,13.5,0,1,0-24.85,0,17.33,17.33,0,1,0,24.85,0Z"/><line class="cls-1" x1="260.31" y1="324.89" x2="260.31" y2="359.89"/><path class="cls-1" d="M307.38,315.16a13.49,13.49,0,1,0-25.92-5.27,13.41,13.41,0,0,0,1.07,5.27,17.32,17.32,0,1,0,24.85,0Z"/><line class="cls-1" x1="294.95" y1="324.89" x2="294.95" y2="359.89"/></g></g></svg>