<svg xmlns="http://www.w3.org/2000/svg" width="1068" height="793" viewBox="0 0 1068 793">
    <g fill="none" fill-rule="evenodd">
        <path stroke="#ED1973" stroke-dasharray="4.4,4.4,4.4" stroke-linecap="round" stroke-linejoin="round" stroke-width="1.1" d="M495.394 131.382l-75.703-43.734-57.113 32.993-190.555 109.998 76.21 44-38.105 22 38.12 22.002M712.391 360.352l-64.07 35.297 228.63 131.992 38.106-21.992 57.165 32.999M286.36 626.628l95.224 55.02 76.21-44M585.982 380.063l53.897-32.471-12.04-6.952-41.857 25v14.423zM947.379 115.748l-17.907 31.017 17.907 10.338v-41.355zM947.379 115.748l17.908 31.017-17.908 10.338v-41.355z"/>
        <path fill="#FFF" d="M929.471 190.626V399.91l17.908 10.339V200.965z"/>
        <path stroke="#ED1973" stroke-linecap="round" stroke-linejoin="round" stroke-width="1.1" d="M929.471 190.626V399.91l17.908 10.339V200.965z"/>
        <path fill="#B8AEF8" d="M965.287 190.626l-17.908 10.339v209.284l17.908-10.34z"/>
        <path stroke="#ED1973" stroke-linecap="round" stroke-linejoin="round" stroke-width="1.1" d="M965.287 190.626l-17.908 10.339v209.284l17.908-10.34z"/>
        <path fill="#FFF" d="M513.267 86.517v187.977l325.585 187.974.002-187.898z"/>
        <path stroke="#ED1973" stroke-linecap="round" stroke-linejoin="round" stroke-width="1.1" d="M513.267 86.517v187.977l325.585 187.974.002-187.898z"/>
        <path fill="#9988F8" d="M567.53 14.458l325.585 187.977-54.263 72.057L513.266 86.517z"/>
        <path stroke="#ED1973" stroke-linecap="round" stroke-linejoin="round" stroke-width="1.1" d="M567.53 14.458l325.585 187.977-54.263 72.057L513.266 86.517z"/>
        <path fill="#FFF" d="M513.302.55l-17.907 31.017 17.907 10.338z"/>
        <path stroke="#ED1973" stroke-linecap="round" stroke-linejoin="round" stroke-width="1.1" d="M513.302.55l-17.907 31.017 17.907 10.338z"/>
        <path fill="#B8AEF8" d="M513.302.55l17.908 31.017-17.908 10.338z"/>
        <path stroke="#ED1973" stroke-linecap="round" stroke-linejoin="round" stroke-width="1.1" d="M513.302.55l17.908 31.017-17.908 10.338z"/>
        <path fill="#FFF" d="M495.395 75.428v209.284l17.908 10.34-.001-209.285z"/>
        <path stroke="#ED1973" stroke-linecap="round" stroke-linejoin="round" stroke-width="1.1" d="M495.395 75.428v209.284l17.908 10.34-.001-209.285z"/>
        <path fill="#FFF" d="M730.324 147.606l-17.906 31.016 17.906 10.337z"/>
        <path stroke="#ED1973" stroke-linecap="round" stroke-linejoin="round" stroke-width="1.1" d="M730.324 147.606l-17.906 31.016 17.906 10.337z"/>
        <path fill="#B8AEF8" d="M730.324 147.606l17.908 31.016-17.908 10.337z"/>
        <path stroke="#ED1973" stroke-linecap="round" stroke-linejoin="round" stroke-width="1.1" d="M730.324 147.606l17.908 31.016-17.908 10.337z"/>
        <path fill="#FFF" d="M712.417 222.482v187.354l17.908 10.34V232.82z"/>
        <path stroke="#ED1973" stroke-linecap="round" stroke-linejoin="round" stroke-width="1.1" d="M712.417 222.482v187.354l17.908 10.34V232.82z"/>
        <path fill="#B8AEF8" d="M748.232 222.482l-17.907 10.34v187.353l17.907-10.34z"/>
        <path stroke="#ED1973" stroke-linecap="round" stroke-linejoin="round" stroke-width="1.1" d="M748.232 222.482l-17.907 10.34v187.353l17.907-10.34z"/>
        <path fill="#755EF8" d="M567.53 14.458l54.265 9.4 325.587 187.975-54.267-9.398z"/>
        <path stroke="#ED1973" stroke-linecap="round" stroke-linejoin="round" stroke-width="1.1" d="M567.53 14.458l54.265 9.4 325.587 187.975-54.267-9.398z"/>
        <path stroke="#ED1973" stroke-dasharray="4.4,4.4,4.4" stroke-linecap="round" stroke-linejoin="round" stroke-width="1.1" d="M549.68 260.094c0-6.801-4.135-14.7-9.235-17.645-5.1-2.945-9.235.18-9.235 6.982 0 .316.018.638.035.958v27.796l18.399 10.623v-27.795c.018-.301.036-.602.036-.92z"/>
        <path fill="#9988F8" d="M549.68 145.185c0-6.801-4.135-14.7-9.235-17.645-5.1-2.945-9.235.18-9.235 6.98 0 .318.018.64.035.96v84.712l18.399 10.623v-84.711c.018-.301.036-.602.036-.92"/>
        <path stroke="#ED1973" stroke-linecap="round" stroke-linejoin="round" stroke-width="1.1" d="M549.68 145.185c0-6.801-4.135-14.7-9.235-17.645-5.1-2.945-9.235.18-9.235 6.98 0 .318.018.64.035.96v84.712l18.399 10.623v-84.711c.018-.301.036-.602.036-.92z"/>
        <path fill="#9988F8" d="M712.427 354.122c0-6.8-4.135-14.7-9.235-17.646-5.1-2.944-9.235.181-9.235 6.982 0 .316.018.638.035.96v27.795l18.399 10.622V355.04c.018-.3.036-.602.036-.918"/>
        <path stroke="#ED1973" stroke-linecap="round" stroke-linejoin="round" stroke-width="1.1" d="M712.427 354.122c0-6.8-4.135-14.7-9.235-17.646-5.1-2.944-9.235.181-9.235 6.982 0 .316.018.638.035.96v27.795l18.399 10.622V355.04c.018-.3.036-.602.036-.918z"/>
        <path fill="#9988F8" d="M712.427 239.213c0-6.801-4.135-14.701-9.235-17.646-5.1-2.944-9.235.18-9.235 6.982 0 .316.018.638.035.958v84.713l18.399 10.622V240.13c.018-.301.036-.602.036-.918"/>
        <path stroke="#ED1973" stroke-linecap="round" stroke-linejoin="round" stroke-width="1.1" d="M712.427 239.213c0-6.801-4.135-14.701-9.235-17.646-5.1-2.944-9.235.18-9.235 6.982 0 .316.018.638.035.958v84.713l18.399 10.622V240.13c.018-.301.036-.602.036-.918z"/>
        <path stroke="#ED1973" stroke-dasharray="4.4,4.4,4.4" stroke-linecap="round" stroke-linejoin="round" stroke-width="1.1" d="M820.956 416.797c0-6.801-4.135-14.701-9.235-17.646-5.101-2.944-9.235.18-9.235 6.982 0 .316.018.638.035.959v27.796l18.399 10.622v-27.795c.017-.301.036-.602.036-.918zM820.956 301.888c0-6.801-4.135-14.701-9.235-17.646-5.101-2.944-9.235.18-9.235 6.982 0 .316.018.638.035.959v84.712l18.399 10.622v-84.711c.017-.301.036-.602.036-.918z"/>
        <path fill="#B8AEF8" d="M893.113 274.339v197.377l-54.262.152V274.492z"/>
        <path stroke="#ED1973" stroke-linecap="round" stroke-linejoin="round" stroke-width="1.1" d="M893.113 274.339v197.377l-54.262.152V274.492z"/>
        <path fill="#9988F8" d="M892.855 471.716l54.266-31.333V243.007l-54.266 31.332z"/>
        <path stroke="#ED1973" stroke-linecap="round" stroke-linejoin="round" stroke-width="1.1" d="M892.855 471.716l54.266-31.333V243.007l-54.266 31.332z"/>
        <path fill="#B8AEF8" d="M893.115 202.435l-.002 71.904-54.262.154z"/>
        <path stroke="#ED1973" stroke-linecap="round" stroke-linejoin="round" stroke-width="1.1" d="M893.115 202.435l-.002 71.904-54.262.154z"/>
        <path fill="#755EF8" d="M893.115 202.435l54.265 40.572v-31.33z"/>
        <path stroke="#ED1973" stroke-linecap="round" stroke-linejoin="round" stroke-width="1.1" d="M893.115 202.435l54.265 40.572v-31.33z"/>
        <path fill="#FFF" d="M838.85 232.67l-17.907 31.018 17.907 10.338z"/>
        <path stroke="#ED1973" stroke-linecap="round" stroke-linejoin="round" stroke-width="1.1" d="M838.85 232.67l-17.907 31.018 17.907 10.338z"/>
        <path fill="#B8AEF8" d="M838.85 232.67l17.907 31.018-17.907 10.338z"/>
        <path stroke="#ED1973" stroke-linecap="round" stroke-linejoin="round" stroke-width="1.1" d="M838.85 232.67l17.907 31.018-17.907 10.338z"/>
        <path fill="#FFF" d="M820.943 263.688v209.284l17.908 10.339V274.026z"/>
        <path stroke="#ED1973" stroke-linecap="round" stroke-linejoin="round" stroke-width="1.1" d="M820.943 263.688v209.284l17.908 10.339V274.026z"/>
        <path fill="#B8AEF8" d="M856.758 263.688l-17.907 10.339V483.31l17.908-10.34z"/>
        <path stroke="#ED1973" stroke-linecap="round" stroke-linejoin="round" stroke-width="1.1" d="M856.758 263.688l-17.907 10.339V483.31l17.908-10.34z"/>
        <path fill="#9988F8" d="M893.115 202.435l-.002 71.904 54.267-31.332z"/>
        <path stroke="#ED1973" stroke-linecap="round" stroke-linejoin="round" stroke-width="1.1" d="M893.115 202.435l-.002 71.904 54.267-31.332z"/>
        <path fill="#FFF" d="M568.074 161.693l-17.907 31.017 17.907 10.338z"/>
        <path stroke="#ED1973" stroke-linecap="round" stroke-linejoin="round" stroke-width="1.1" d="M568.074 161.693l-17.907 31.017 17.907 10.338z"/>
        <path fill="#FFF" d="M550.167 192.71v187.354l17.908 10.339-.001-187.354z"/>
        <path stroke="#ED1973" stroke-linecap="round" stroke-linejoin="round" stroke-width="1.1" d="M550.167 192.71v187.354l17.908 10.339-.001-187.354z"/>
        <path fill="#B8AEF8" d="M585.981 192.71l-17.907 10.339v187.354l17.907-10.34z"/>
        <path stroke="#ED1973" stroke-linecap="round" stroke-linejoin="round" stroke-width="1.1" d="M585.981 192.71l-17.907 10.339v187.354l17.907-10.34z"/>
        <path stroke="#ED1973" stroke-dasharray="4.4,4.4,4.4" stroke-linecap="round" stroke-linejoin="round" stroke-width="1.1" d="M585.982 193.063l54.724-32.97-12.035-6.948-48.73 29.103 6.04 10.815zM513.259 43.665l.015 39.966M531.202 33.54l.015 39.966M495.894 33.54l.015 39.966"/>
        <path fill="#755EF8" d="M965.287 190.626l-17.905-10.179-17.91 10.179 17.907 10.339z"/>
        <path stroke="#ED1973" stroke-linecap="round" stroke-linejoin="round" stroke-width="1.1" d="M965.287 190.626l-17.905-10.179-17.91 10.179 17.907 10.339z"/>
        <path stroke="#ED1973" stroke-dasharray="4.4,4.4,4.4" stroke-linecap="round" stroke-linejoin="round" stroke-width="1.1" d="M929.471 148.965v43.86M947.382 159.303v43.86M965.287 148.965v43.86M712.417 178.621v43.861M730.324 188.96v43.861M748.232 178.621v43.861"/>
        <path fill="#755EF8" d="M748.232 222.402l-17.905-10.179-17.909 10.18 17.907 10.338z"/>
        <path stroke="#ED1973" stroke-linecap="round" stroke-linejoin="round" stroke-width="1.1" d="M748.232 222.402l-17.905-10.179-17.909 10.18 17.907 10.338z"/>
        <path fill="#B8AEF8" d="M568.074 161.693l17.907 31.017-17.907 10.338z"/>
        <path stroke="#ED1973" stroke-linecap="round" stroke-linejoin="round" stroke-width="1.1" d="M568.074 161.693l17.907 31.017-17.907 10.338z"/>
        <path fill="#B8AEF8" d="M531.21 75.428l-17.908 10.339v209.285l17.908-10.341z"/>
        <path stroke="#ED1973" stroke-linecap="round" stroke-linejoin="round" stroke-width="1.1" d="M531.21 75.428l-17.908 10.339v209.285l17.908-10.341z"/>
        <path fill="#FFF" d="M1010.336 362.642l-19.053 55 19.053 11z"/>
        <path stroke="#ED1973" stroke-linecap="round" stroke-linejoin="round" stroke-width="1.1" d="M1010.336 362.642l-19.053 55 19.053 11z"/>
        <path fill="#B8AEF8" d="M1010.336 362.642l19.053 55-19.053 11z"/>
        <path stroke="#ED1973" stroke-linecap="round" stroke-linejoin="round" stroke-width="1.1" d="M1010.336 362.642l19.053 55-19.053 11zM1010.348 439.64v-10.996"/>
        <path stroke="#ED1973" stroke-dasharray="4.4,4.4,4.4" stroke-linecap="round" stroke-linejoin="round" stroke-width="1.1" d="M1010.348 407.01l-19.053 55 19.053 11v-66zM1010.348 407.01l19.053 55-19.053 11v-66zM1010.361 484.01v-10.998"/>
        <path fill="#ED1973" d="M495.394 197.356L343.48 285.649 610.232 439.64l38.09-21.991 190.525 110-342.93 197.992-38.124-21.991 304.843-176.001-114.299-66.009-38.12 22.009-342.948-198 228.125-131.5z"/>
        <path fill="#755EF8" d="M419.714 153.629l-114.315-66-38.12 22.01 113.443 65.496z"/>
        <path stroke="#ED1973" stroke-linecap="round" stroke-linejoin="round" stroke-width="1.1" d="M419.714 153.629l-114.315-66-38.12 22.01 113.443 65.496z"/>
        <path fill="#FFF" d="M267.279 109.639v132l38.12 21.99-.015-87.99 38.12 21.99-.27 88.01 38.36 22-.872-132.504z"/>
        <path stroke="#ED1973" stroke-linecap="round" stroke-linejoin="round" stroke-width="1.1" d="M267.279 109.639v132l38.12 21.99-.015-87.99 38.12 21.99-.27 88.01 38.36 22-.872-132.504z"/>
        <path fill="#755EF8" d="M343.461 329.638l-38.07 21.99-38.105-22 38.07-21.99z"/>
        <path stroke="#ED1973" stroke-linecap="round" stroke-linejoin="round" stroke-width="1.1" d="M343.461 329.638l-38.07 21.99-38.105-22 38.07-21.99z"/>
        <path fill="#B8AEF8" d="M419.714 153.629l-38.992 21.506.871 132.504 38.121 22.023z"/>
        <path stroke="#ED1973" stroke-linecap="round" stroke-linejoin="round" stroke-width="1.1" d="M419.714 153.629l-38.992 21.506.871 132.504 38.121 22.023z"/>
        <path fill="#B8AEF8" d="M381.601 351.658l-76.228 43.998.018-44.027 38.07-21.992z"/>
        <path stroke="#ED1973" stroke-linecap="round" stroke-linejoin="round" stroke-width="1.1" d="M381.601 351.658l-76.228 43.998.018-44.027 38.07-21.992z"/>
        <path fill="#B8AEF8" d="M343.504 197.629l-38.12-21.99.015 87.99 37.97-21.847z"/>
        <path stroke="#ED1973" stroke-linecap="round" stroke-linejoin="round" stroke-width="1.1" d="M343.504 197.629l-38.12-21.99.015 87.99 37.97-21.847z"/>
        <path fill="#FFF" d="M267.286 329.629l-.017 44.02 38.105 22.007.017-44.027z"/>
        <path stroke="#ED1973" stroke-linecap="round" stroke-linejoin="round" stroke-width="1.1" d="M267.286 329.629l-.017 44.02 38.105 22.007.017-44.027z"/>
        <path fill="#755EF8" d="M419.706 417.64l-114.315 66 228.613 132.01 114.333-66.008z"/>
        <path stroke="#ED1973" stroke-linecap="round" stroke-linejoin="round" stroke-width="1.1" d="M419.706 417.64l-114.315 66 228.613 132.01 114.333-66.008z"/>
        <path fill="#FFF" d="M800.741 593.648l.017-87.99 38.089 21.99-.001 88z"/>
        <path stroke="#ED1973" stroke-linecap="round" stroke-linejoin="round" stroke-width="1.1" d="M800.741 593.648l.017-87.99 38.089 21.99-.001 88z"/>
        <path fill="#755EF8" d="M838.851 483.31l-38.094 22.348 38.09 21.99 38.105-22z"/>
        <path stroke="#ED1973" stroke-linecap="round" stroke-linejoin="round" stroke-width="1.1" d="M838.851 483.31l-38.094 22.348 38.09 21.99 38.105-22z"/>
        <path fill="#755EF8" d="M800.741 593.648l-76.21 44-38.089-21.99-38.122 21.994 76.211 43.997 114.315-66z"/>
        <path stroke="#ED1973" stroke-linecap="round" stroke-linejoin="round" stroke-width="1.1" d="M800.741 593.648l-76.21 44-38.089-21.99-38.122 21.994 76.211 43.997 114.315-66z"/>
        <path fill="#B8AEF8" d="M876.952 505.648v132L724.53 725.65v-44l114.316-66v-88z"/>
        <path stroke="#ED1973" stroke-linecap="round" stroke-linejoin="round" stroke-width="1.1" d="M876.952 505.648v132L724.53 725.65v-44l114.316-66v-88z"/>
        <path fill="#FFF" d="M724.53 725.65l-114.315-65.998 38.104-22 76.212 43.997z"/>
        <path stroke="#ED1973" stroke-linecap="round" stroke-linejoin="round" stroke-width="1.1" d="M724.53 725.65l-114.315-65.998 38.104-22 76.212 43.997z"/>
        <path fill="#755EF8" d="M991.267 527.648l-76.21 44 38.105 22 76.226-44.006z"/>
        <path stroke="#ED1973" stroke-linecap="round" stroke-linejoin="round" stroke-width="1.1" d="M991.267 527.648l-76.21 44 38.105 22 76.226-44.006z"/>
        <path fill="#FFF" d="M915.057 571.648l.016 43.994 38.105 22-.017-43.994z"/>
        <path stroke="#ED1973" stroke-linecap="round" stroke-linejoin="round" stroke-width="1.1" d="M915.057 571.648l.016 43.994 38.105 22-.017-43.994z"/>
        <path fill="#B8AEF8" d="M953.178 637.643l38.09-21.994v44l38.12-22.005v-88.001l-76.226 44.006z"/>
        <path stroke="#ED1973" stroke-linecap="round" stroke-linejoin="round" stroke-width="1.1" d="M953.178 637.643l38.09-21.994v44l38.12-22.005v-88.001l-76.226 44.006z"/>
        <path fill="#FFF" d="M991.267 615.648l-38.089 21.994 38.09 22.006z"/>
        <path stroke="#ED1973" stroke-linecap="round" stroke-linejoin="round" stroke-width="1.1" d="M991.267 615.648l-38.089 21.994 38.09 22.006z"/>
        <path fill="#FFF" d="M152.953 527.65l-38.087-22.01-.017-219.992 38.105 22z"/>
        <path stroke="#ED1973" stroke-linecap="round" stroke-linejoin="round" stroke-width="1.1" d="M152.953 527.65l-38.087-22.01-.017-219.992 38.105 22z"/>
        <path fill="#B8AEF8" d="M191.06 285.648l-38.106 22V527.65l38.122-22.01z"/>
        <path stroke="#ED1973" stroke-linecap="round" stroke-linejoin="round" stroke-width="1.1" d="M191.06 285.648l-38.106 22V527.65l38.122-22.01z"/>
        <path fill="#FFF" d="M152.97 219.638l-38.122 66.01 38.105 22z"/>
        <path stroke="#ED1973" stroke-linecap="round" stroke-linejoin="round" stroke-width="1.1" d="M152.97 219.638l-38.122 66.01 38.105 22z"/>
        <path fill="#B8AEF8" d="M152.97 219.638l38.09 66.01-38.107 22z"/>
        <path stroke="#ED1973" stroke-linecap="round" stroke-linejoin="round" stroke-width="1.1" d="M152.97 219.638l38.09 66.01-38.107 22z"/>
        <path fill="#FFF" d="M267.286 461.655l-.017 88.01-38.106-22v44l114.316 66 .017-132.01z"/>
        <path stroke="#ED1973" stroke-linecap="round" stroke-linejoin="round" stroke-width="1.1" d="M267.286 461.655l-.017 88.01-38.106-22v44l114.316 66 .017-132.01z"/>
        <path fill="#755EF8" d="M305.39 439.64l-38.103 22.016 76.21 44 38.072-22.016z"/>
        <path stroke="#ED1973" stroke-linecap="round" stroke-linejoin="round" stroke-width="1.1" d="M305.39 439.64l-38.103 22.016 76.21 44 38.072-22.016z"/>
        <path fill="#B8AEF8" d="M381.569 483.64l.016 88.01-38.088 22.01v-88.004z"/>
        <path stroke="#ED1973" stroke-linecap="round" stroke-linejoin="round" stroke-width="1.1" d="M381.569 483.64l.016 88.01-38.088 22.01v-88.004z"/>
        <path fill="#755EF8" d="M381.584 571.65l-114.298 65.99 38.087 22.01 114.316-66z"/>
        <path stroke="#ED1973" stroke-linecap="round" stroke-linejoin="round" stroke-width="1.1" d="M381.584 571.65l-114.298 65.99 38.087 22.01 114.316-66z"/>
        <path fill="#FFF" d="M267.286 637.64l-.018 44.01 38.105 22v-44z"/>
        <path stroke="#ED1973" stroke-linecap="round" stroke-linejoin="round" stroke-width="1.1" d="M267.286 637.64l-.018 44.01 38.105 22v-44z"/>
        <path fill="#B8AEF8" d="M419.69 593.65l.016 43.991-38.105 22-.017-21.992-38.106 22v22l-38.105 22v-44z"/>
        <path stroke="#ED1973" stroke-linecap="round" stroke-linejoin="round" stroke-width="1.1" d="M419.69 593.65l.016 43.991-38.105 22-.017-21.992-38.106 22v22l-38.105 22v-44z"/>
        <path fill="#755EF8" d="M267.258 505.655l-38.094 22.01 38.105 22z"/>
        <path stroke="#ED1973" stroke-linecap="round" stroke-linejoin="round" stroke-width="1.1" d="M267.258 505.655l-38.094 22.01 38.105 22z"/>
        <path fill="#FFF" d="M381.601 659.642l-19.085-11.001 19.067-10.991z"/>
        <path stroke="#ED1973" stroke-linecap="round" stroke-linejoin="round" stroke-width="1.1" d="M381.601 659.642l-19.085-11.001 19.067-10.991z"/>
        <path fill="#FFF" d="M95.776 516.65l-19.053 55 19.053 11z"/>
        <path stroke="#ED1973" stroke-linecap="round" stroke-linejoin="round" stroke-width="1.1" d="M95.776 516.65l-19.053 55 19.053 11z"/>
        <path fill="#B8AEF8" d="M95.776 516.65l19.052 55-19.052 11z"/>
        <path stroke="#ED1973" stroke-linecap="round" stroke-linejoin="round" stroke-width="1.1" d="M95.776 516.65l19.052 55-19.052 11zM95.788 593.648v-10.997"/>
        <path stroke="#ED1973" stroke-dasharray="4.4,4.4,4.4" stroke-linecap="round" stroke-linejoin="round" stroke-width="1.1" d="M57.69 538.639l-19.054 55 19.053 11v-66z"/>
        <path stroke="#ED1973" stroke-dasharray="4.4,4.4,4.4" stroke-linecap="round" stroke-linejoin="round" stroke-width="1.1" d="M57.69 538.639l19.051 55-19.052 11v-66zM57.702 615.638V604.64"/>
        <path fill="#B8AEF8" d="M276.812 544.16l57.158-33v66z"/>
        <path stroke="#ED1973" stroke-linecap="round" stroke-linejoin="round" stroke-width="1.1" d="M276.812 544.16l57.158-33v66z"/>
        <path fill="#FFF" d="M276.812 478.16l57.158 33-57.158 33z"/>
        <path stroke="#ED1973" stroke-linecap="round" stroke-linejoin="round" stroke-width="1.1" d="M276.812 478.16l57.158 33-57.158 33z"/>
        <path fill="#9988F8" d="M805.507 546.91l28.576-16.506v32.99z"/>
        <path stroke="#ED1973" stroke-linecap="round" stroke-linejoin="round" stroke-width="1.1" d="M805.507 546.91l28.576-16.506v32.99z"/>
        <path fill="#FFF" d="M805.505 513.904l.002 33.005 28.576-16.505z"/>
        <path stroke="#ED1973" stroke-linecap="round" stroke-linejoin="round" stroke-width="1.1" d="M805.505 513.904l.002 33.005 28.576-16.505z"/>
        <path fill="#9988F8" d="M1024.648 590.902l-28.576-16.504.001 32.99z"/>
        <path stroke="#ED1973" stroke-linecap="round" stroke-linejoin="round" stroke-width="1.1" d="M1024.648 590.902l-28.576-16.504.001 32.99z"/>
        <path fill="#FFF" d="M1024.65 557.898l-.002 33.004-28.576-16.504z"/>
        <path stroke="#ED1973" stroke-linecap="round" stroke-linejoin="round" stroke-width="1.1" d="M1024.65 557.898l-.002 33.004-28.576-16.504z"/>
        <path fill="#9988F8" d="M119.614 502.898l28.577-16.505-.001 32.99z"/>
        <path stroke="#ED1973" stroke-linecap="round" stroke-linejoin="round" stroke-width="1.1" d="M119.614 502.898l28.577-16.505-.001 32.99z"/>
        <path fill="#FFF" d="M119.612 469.894l.002 33.005 28.577-16.505z"/>
        <path stroke="#ED1973" stroke-linecap="round" stroke-linejoin="round" stroke-width="1.1" d="M119.612 469.894l.002 33.005 28.577-16.505z"/>
        <path stroke="#ED1973" stroke-dasharray="4.4,4.4,4.4" stroke-linecap="round" stroke-linejoin="round" stroke-width="1.1" d="M457.794 637.65l-38.088-22.01M319.894 502.884l-71.677 41.384M248.216 544.268v60.37l38.144 21.99M953.162 659.648L876.95 615.64M1029.365 571.642l38.113 22.007-114.316 66"/>
        <path fill="#FFF" d="M210.129 164.627l-19.053 55 19.053 11z"/>
        <path stroke="#ED1973" stroke-linecap="round" stroke-linejoin="round" stroke-width="1.1" d="M210.129 164.627l-19.053 55 19.053 11z"/>
        <path fill="#B8AEF8" d="M210.129 164.627l19.052 55-19.052 11z"/>
        <path stroke="#ED1973" stroke-linecap="round" stroke-linejoin="round" stroke-width="1.1" d="M210.129 164.627l19.052 55-19.052 11zM210.141 241.626v-10.997"/>
        <g>
            <path fill="#FFF" d="M172.005 560.628l-19.053 55 19.053 11z"/>
            <path stroke="#ED1973" stroke-linecap="round" stroke-linejoin="round" stroke-width="1.1" d="M172.005 560.628l-19.053 55 19.053 11z"/>
            <path fill="#B8AEF8" d="M172.005 560.628l19.052 55-19.052 11z"/>
            <path stroke="#ED1973" stroke-linecap="round" stroke-linejoin="round" stroke-width="1.1" d="M172.005 560.628l19.052 55-19.052 11zM172.017 637.627V626.63"/>
        </g>
        <g>
            <path fill="#FFF" d="M629.266 692.64l-19.053 55 19.053 11z"/>
            <path stroke="#ED1973" stroke-linecap="round" stroke-linejoin="round" stroke-width="1.1" d="M629.266 692.64l-19.053 55 19.053 11z"/>
            <path fill="#B8AEF8" d="M629.266 692.64l19.052 55-19.052 11z"/>
            <path stroke="#ED1973" stroke-linecap="round" stroke-linejoin="round" stroke-width="1.1" d="M629.266 692.64l19.052 55-19.052 11zM629.28 769.64v-10.997"/>
        </g>
        <g stroke="#ED1973" stroke-dasharray="4.4,4.4,4.4" stroke-linecap="round" stroke-linejoin="round" stroke-width="1.1">
            <path d="M591.16 714.64l-19.052 55 19.053 11v-66z"/>
            <path d="M591.16 714.64l19.054 55-19.053 11v-66zM591.174 791.64v-10.997"/>
        </g>
        <g>
            <path fill="#755EF8" d="M38.656 329.65l-38.105 22 38.11 21.996 38.1-21.997z"/>
            <path stroke="#ED1973" stroke-linecap="round" stroke-linejoin="round" stroke-width="1.1" d="M38.656 329.65l-38.105 22 38.11 21.996 38.1-21.997z"/>
            <path fill="#FFF" d="M.55 351.65v44l38.105 22 .006-44.004z"/>
            <path stroke="#ED1973" stroke-linecap="round" stroke-linejoin="round" stroke-width="1.1" d="M.55 351.65v44l38.105 22 .006-44.004z"/>
            <path fill="#B8AEF8" d="M76.76 351.65l-38.099 21.996-.005 44.004 38.104-22z"/>
            <path stroke="#ED1973" stroke-linecap="round" stroke-linejoin="round" stroke-width="1.1" d="M76.76 351.65l-38.099 21.996-.005 44.004 38.104-22z"/>
        </g>
    </g>
</svg>
