<svg xmlns="http://www.w3.org/2000/svg" width="81" height="81" viewBox="0 0 81 81">
    <g fill="none" fill-rule="evenodd">
        <path fill="#9988F8" d="M80.43 40.645c0 21.99-17.828 39.818-39.818 39.818S.794 62.636.794 40.646C.794 18.653 18.621.828 40.612.828c21.99 0 39.817 17.826 39.817 39.817"/>
        <path stroke="#ED1973" stroke-linecap="round" stroke-linejoin="round" stroke-width="1.1" d="M80.43 40.645c0 21.99-17.828 39.818-39.818 39.818S.794 62.636.794 40.646C.794 18.653 18.621.828 40.612.828c21.99 0 39.817 17.826 39.817 39.817z"/>
        <path fill="#FFF" d="M43.367 6.791c13.416 4.779 23.076 18.125 23.076 33.854S56.783 69.72 43.367 74.5c17.474-1.404 31.22-16.02 31.22-33.855 0-17.835-13.746-32.451-31.22-33.854"/>
    </g>
</svg>
