<svg xmlns="http://www.w3.org/2000/svg" width="335" height="180" viewBox="0 0 335 180">
    <path fill="#FFF" fill-rule="evenodd" stroke="#FFF" stroke-width="1.5" d="M51.976 4.024L41.968 47.08H33.4l-6.912-28.872-6.984 28.872h-8.64L1 4.024h7.776l6.48 30.24 7.128-30.24h8.064l7.128 30.24 6.408-30.24h7.992zM84.808 47.08H57.736V4.024h27.072v7.2H65.296v10.872H83.44v7.2H65.296V39.88h19.512v7.2zm5.616-34.56L95.752 1h8.064l-6.408 13.68-6.984-2.16zM143.2 4.024L128.944 47.08h-8.856L105.904 4.024h8.064l10.584 33.336 10.656-33.336h7.992zm32.4 43.056h-27.072V4.024H175.6v7.2h-19.512v10.872h18.144v7.2h-18.144V39.88H175.6v7.2zm34.56-32.76v22.536c0 .864 2.304 2.736 3.312 3.312.072 0 .144.072.36.072h9.792c.216 0 .36-.072.36-.072 1.008-.576 3.312-2.664 3.312-3.528v-6.984h-9.288v-7.2h16.848V37s.504 4.752 1.368 10.08h-7.416l-.36-1.728c-1.008.72-2.808 2.088-4.464 2.088h-10.512c-1.584 0-3.312-.576-4.464-1.296-1.512-.864-4.392-3.744-5.256-5.04-.864-1.296-1.152-2.808-1.152-4.176V14.176c0-1.368.288-2.808 1.152-4.104.864-1.224 3.744-4.32 5.256-5.184 1.152-.72 2.88-1.224 4.464-1.224h10.512c4.248 0 7.272 3.312 9.144 5.976.576.792 1.152 1.656 1.512 2.52l-7.272 2.088s-1.584-2.16-3.384-3.312c-.072-.072-.288-.072-.36-.072h-9.792c-.216 0-.36.072-.36.072-.792.432-2.376 1.728-3.24 3.096-.072.144-.072.288-.072.288zm68.256 22.536c0 1.368-.288 2.808-1.152 4.104-.936 1.224-3.744 4.32-5.256 5.184-1.152.72-2.952 1.296-4.464 1.296H256.6c-1.584 0-3.312-.576-4.464-1.296-1.512-.864-4.392-3.96-5.256-5.184-.864-1.296-1.152-2.736-1.152-4.104V14.32c0-1.368.288-2.808 1.152-4.104.864-1.224 3.744-4.32 5.256-5.184 1.152-.72 2.88-1.296 4.464-1.296h10.944c1.512 0 3.312.576 4.464 1.296 1.512.864 4.32 3.96 5.256 5.184.864 1.296 1.152 2.736 1.152 4.104v22.536zm-25.128-22.32v22.248s0 .216.072.288c.864 1.296 2.376 2.664 3.168 3.096a.783.783 0 0 0 .36.072h10.368s.216 0 .36-.072c.792-.432 2.304-1.8 3.168-3.096.072-.144.072-.288.072-.288V14.536s0-.288-.072-.36c-.864-1.296-2.376-2.736-3.168-3.168-.144-.072-.288-.072-.36-.072h-10.368s-.288 0-.36.072c-.792.432-2.304 1.872-3.168 3.168-.072.144-.072.36-.072.36zm63.36-3.312h-11.664V47.08h-7.56V11.224H285.76v-7.2h30.888v7.2zM35.056 103.288c0 1.512-.36 3.024-1.224 4.32-.648.936-2.808 3.168-3.816 3.888-1.44 1.008-3.456 1.584-5.184 1.584H4.6V70.024h20.232c1.872 0 3.744.648 5.184 1.656 1.008.72 3.168 2.952 3.816 3.888.936 1.368 1.224 3.024 1.224 4.464v5.328c0 3.024-1.152 4.608-2.808 6.264 1.656 1.656 2.808 3.168 2.808 6.192v5.472zM27.424 85.72s.072-.144.072-.504v-5.112c0-.144-.072-.36-.072-.36-.648-1.152-2.016-2.52-2.664-2.52h-12.6v10.872h12.672c.648 0 2.088-1.296 2.592-2.376zm0 17.784s.072-.216.072-.504v-5.112c0-.216-.072-.36-.072-.36-.648-1.152-2.016-2.448-2.664-2.448h-12.6v10.8h12.672c.648 0 2.088-1.296 2.592-2.376zm24.696 9.576h-7.56V70.024h7.56v43.056zm17.928-32.76v22.536c0 .864 2.304 2.736 3.312 3.312.072 0 .144.072.36.072h9.792c.216 0 .36-.072.36-.072 1.008-.576 3.312-2.664 3.312-3.528v-6.984h-9.288v-7.2h16.848V103s.504 4.752 1.368 10.08h-7.416l-.36-1.728c-1.008.72-2.808 2.088-4.464 2.088H73.36c-1.584 0-3.312-.576-4.464-1.296-1.512-.864-4.392-3.744-5.256-5.04-.864-1.296-1.152-2.808-1.152-4.176V80.176c0-1.368.288-2.808 1.152-4.104.864-1.224 3.744-4.32 5.256-5.184 1.152-.72 2.88-1.224 4.464-1.224h10.512c4.248 0 7.272 3.312 9.144 5.976.576.792 1.152 1.656 1.512 2.52l-7.272 2.088s-1.584-2.16-3.384-3.312c-.072-.072-.288-.072-.36-.072H73.72c-.216 0-.36.072-.36.072-.792.432-2.376 1.728-3.24 3.096-.072.144-.072.288-.072.288zm81-3.096h-11.664v35.856h-7.56V77.224H120.16v-7.2h30.888v7.2zm38.52 35.856h-7.56V95.296h-15.696v17.784h-7.56V70.024h7.56v18.072h15.696V70.024h7.56v43.056zm17.928 0h-7.56V70.024h7.56v43.056zm40.824 0h-7.992l-14.904-28.584v28.584h-7.56V70.024H226l14.76 28.944V70.024h7.56v43.056zm17.928-32.76v22.536c0 .864 2.304 2.736 3.312 3.312.072 0 .144.072.36.072h9.792c.216 0 .36-.072.36-.072 1.008-.576 3.312-2.664 3.312-3.528v-6.984h-9.288v-7.2h16.848V103s.504 4.752 1.368 10.08h-7.416l-.36-1.728c-1.008.72-2.808 2.088-4.464 2.088H269.56c-1.584 0-3.312-.576-4.464-1.296-1.512-.864-4.392-3.744-5.256-5.04-.864-1.296-1.152-2.808-1.152-4.176V80.176c0-1.368.288-2.808 1.152-4.104.864-1.224 3.744-4.32 5.256-5.184 1.152-.72 2.88-1.224 4.464-1.224h10.512c4.248 0 7.272 3.312 9.144 5.976.576.792 1.152 1.656 1.512 2.52l-7.272 2.088s-1.584-2.16-3.384-3.312c-.072-.072-.288-.072-.36-.072h-9.792c-.216 0-.36.072-.36.072-.792.432-2.376 1.728-3.24 3.096-.072.144-.072.288-.072.288zm67.32 22.536c0 1.224-.216 2.808-1.152 4.104-.864 1.296-3.744 4.32-5.256 5.184-1.152.648-2.952 1.296-4.464 1.296h-12.528c-4.248 0-7.272-3.456-9.144-5.976-.576-.792-.72-1.152-1.296-2.232l7.128-2.376s1.44 2.016 3.168 3.312c0 0 .144.072.504.072h11.808c.288 0 .432-.072.432-.072 1.08-.576 3.24-2.736 3.24-3.312v-4.248c0-.648-.504-1.152-.864-1.224l-18.72-5.328c-3.672-1.008-5.616-4.536-5.616-7.848V80.32c0-1.224.216-2.808 1.08-4.104.864-1.296 3.816-4.32 5.328-5.184 1.152-.648 2.88-1.296 4.464-1.296h10.656c4.32 0 7.272 3.528 9.144 5.976.576.792.936 1.44 1.44 2.52l-7.272 2.088s-1.656-2.376-3.168-3.312c0 0-.072-.072-.432-.072h-10.152c-.288 0-.432.072-.432.072-1.152.576-3.096 2.592-3.096 3.168v3.6c0 .648.432 1.152.792 1.224l18.792 5.472c3.672 1.008 5.616 4.608 5.616 7.848v4.536zm-298.44 49.44c0 1.584-.432 3.096-1.296 4.392-.648.936-2.88 3.096-3.888 3.816-1.512 1.08-3.384 1.584-5.112 1.584H12.16v16.992H4.6v-43.056h20.232c1.728 0 3.672.576 5.112 1.584 1.008.72 3.24 3.024 3.888 3.96.864 1.296 1.296 2.88 1.296 4.392v6.336zm-7.56-.072v-6.192s0-.36-.072-.504c-.432-.792-1.584-2.232-2.304-2.304H12.16v11.664h12.672c.648 0 2.088-1.368 2.664-2.376 0 0 .072-.144.072-.288zm42.336 26.856h-26.64v-43.056h7.56v35.856h19.08v7.2zm41.832 0h-8.064l-3.168-9.144H84.16l-3.168 9.144h-8.064l15.048-43.056h8.784l14.976 43.056zm-13.608-16.344l-5.76-16.992-5.832 16.992h11.592zm49.68 16.344h-7.992l-14.904-28.584v28.584h-7.56v-43.056h8.136l14.76 28.944v-28.944h7.56v43.056zm40.824 0h-7.992l-14.904-28.584v28.584h-7.56v-43.056h8.136l14.76 28.944v-28.944h7.56v43.056zm37.44 0H199v-43.056h27.072v7.2H206.56v10.872h18.144v7.2H206.56v10.584h19.512v7.2zm40.536-10.44c0 1.296-.216 2.808-1.08 4.104-.864 1.296-3.744 4.176-5.328 5.04-1.152.648-2.808 1.296-4.32 1.296h-19.728v-43.056h19.728c1.368 0 3.168.432 4.392 1.224 1.584.936 4.32 4.032 5.184 5.256.936 1.296 1.152 2.736 1.152 4.104v22.032zm-22.896 3.24h11.664s.432 0 .504-.072c1.008-.576 3.168-2.448 3.168-3.312v-21.672s0-.216-.072-.36c-.864-1.44-2.304-2.736-3.168-3.168-.072-.072-.504-.072-.648-.072h-11.448v28.656z"/>
</svg>
