<svg xmlns="http://www.w3.org/2000/svg" width="23" height="18" viewBox="0 0 23 18">
    <path fill="#FFF" fill-rule="evenodd" d="M22.91 2.046c0 .673-.208 1.316-.624 1.93a6.09 6.09 0 0 1-1.557 1.573c-3.2 2.223-5.192 3.61-5.976 4.154l-.542.39c-.277.2-.507.363-.689.486-.183.124-.405.262-.665.415a3.829 3.829 0 0 1-.733.346 2.017 2.017 0 0 1-.638.115h-.026c-.195 0-.407-.038-.639-.115a3.897 3.897 0 0 1-.733-.346c-.26-.153-.482-.291-.664-.415a24.469 24.469 0 0 1-.689-.486l-.543-.39A637.856 637.856 0 0 0 4.848 7.37 511.159 511.159 0 0 1 2.231 5.55C1.704 5.19 1.205 4.698.737 4.072.268 3.445.034 2.864.034 2.327c0-.665.178-1.218.531-1.661C.918.221 1.422 0 2.078 0h18.79c.555 0 1.033.2 1.436.601.405.401.607.882.607 1.445m0 3.758v10.151c0 .563-.2 1.044-.6 1.445-.4.4-.88.6-1.442.6H2.078c-.561 0-1.043-.2-1.443-.6-.4-.4-.6-.882-.6-1.445V5.805c.375.416.804.788 1.289 1.112 3.082 2.096 5.196 3.566 6.345 4.41.485.357.88.637 1.181.837.302.2.705.406 1.206.614.502.208.97.313 1.404.313h.026c.434 0 .903-.105 1.405-.313a7.24 7.24 0 0 0 1.206-.614c.301-.2.695-.48 1.18-.837 1.447-1.049 3.566-2.518 6.358-4.41.485-.334.91-.703 1.276-1.113" opacity=".5"/>
</svg>
