<svg xmlns="http://www.w3.org/2000/svg" width="22" height="18" viewBox="0 0 22 18">
    <path fill="#FFF" fill-rule="evenodd" d="M21.366 3.348c0 .025-1.014 1.684-3.041 4.981a2637.904 2637.904 0 0 1-3.564 5.789l-4.623-7.529L13.98.332c.134-.22.339-.332.617-.332.109 0 .212.024.307.072l6.414 3.205c.031.016.048.04.048.071zm.035 1.424v12.515a.698.698 0 0 1-.166.483.58.58 0 0 1-.45.183c-.19 0-.375-.051-.558-.155L15 15.186l6.402-10.414zM7.99 4.56l6.333 10.282-6.332-3.159V4.56zm-.758-1.199v13.926a.85.85 0 0 1-.148.505.499.499 0 0 1-.433.208.853.853 0 0 1-.39-.095L.748 15.138a1.001 1.001 0 0 1-.421-.397 1.052 1.052 0 0 1-.172-.552V.654c0-.16.04-.293.118-.404A.399.399 0 0 1 .618.083c.11 0 .284.06.521.179l6.058 3.04c.024.022.036.042.036.06z" opacity=".5"/>
</svg>
