<svg xmlns="http://www.w3.org/2000/svg" width="23" height="18" viewBox="0 0 23 18">
    <path fill="#FFF" fill-rule="evenodd" d="M22.424 2.137a9.495 9.495 0 0 1-2.274 2.349 12.908 12.908 0 0 1-.52 4.24 13.166 13.166 0 0 1-1.623 3.494 13.71 13.71 0 0 1-2.59 2.96c-1.002.858-2.209 1.542-3.623 2.053-1.414.511-2.926.767-4.535.767-2.537 0-4.86-.68-6.966-2.039.328.037.693.055 1.095.055 2.107 0 3.985-.646 5.632-1.94a4.41 4.41 0 0 1-2.64-.907 4.449 4.449 0 0 1-1.602-2.243c.31.047.596.07.857.07.403 0 .8-.05 1.194-.154a4.457 4.457 0 0 1-2.604-1.568c-.69-.83-1.033-1.793-1.033-2.89v-.056c.637.356 1.32.548 2.05.577a4.533 4.533 0 0 1-1.474-1.618 4.427 4.427 0 0 1-.547-2.166c0-.824.206-1.589.617-2.292a12.873 12.873 0 0 0 4.135 3.354 12.63 12.63 0 0 0 5.217 1.4 5.013 5.013 0 0 1-.112-1.041c0-1.256.442-2.328 1.327-3.214C13.29.443 14.36 0 15.613 0c1.311 0 2.416.478 3.314 1.434A8.886 8.886 0 0 0 21.806.337c-.347 1.078-1.01 1.913-1.994 2.503a9.044 9.044 0 0 0 2.612-.703" opacity=".5"/>
</svg>
