<svg xmlns="http://www.w3.org/2000/svg" width="1030" height="639" viewBox="0 0 1030 639">
    <g fill="none" fill-rule="evenodd">
        <path fill="#ED478E" d="M267.271 265.451L229.2 287.449l76.214 44.005 38.074-22z"/>
        <path stroke="#6046F8" stroke-linecap="round" stroke-linejoin="round" stroke-width="1.1" d="M267.271 265.451L229.2 287.449l76.214 44.005 38.074-22z"/>
        <path fill="#FFF" d="M191.092 309.452l-.013 43.993 76.242 44.026v-44z"/>
        <path stroke="#6046F8" stroke-linecap="round" stroke-linejoin="round" stroke-width="1.1" d="M191.092 309.452l-.013 43.993 76.242 44.026v-44z"/>
        <path fill="#ED8EB7" d="M343.488 309.454l.008 44.006-76.176 44.011v-44z"/>
        <path stroke="#6046F8" stroke-linecap="round" stroke-linejoin="round" stroke-width="1.1" d="M343.488 309.454l.008 44.006-76.176 44.011v-44z"/>
        <path fill="#ED8EB7" d="M343.488 309.454l114.315-66v-88l-114.315 66.011z"/>
        <path stroke="#6046F8" stroke-linecap="round" stroke-linejoin="round" stroke-width="1.1" d="M343.488 309.454l114.315-66v-88l-114.315 66.011z"/>
        <path fill="#ED478E" d="M457.803 155.454l-38.11-22.003-76.212 44-38.105-22-38.105 22 76.216 44.015z"/>
        <path stroke="#6046F8" stroke-linecap="round" stroke-linejoin="round" stroke-width="1.1" d="M457.803 155.454l-38.11-22.003-76.212 44-38.105-22-38.105 22 76.216 44.015z"/>
        <path fill="#FFF" d="M267.271 177.45v88l76.216 44.005v-87.99z"/>
        <path stroke="#6046F8" stroke-linecap="round" stroke-linejoin="round" stroke-width="1.1" d="M267.271 177.45v88l76.216 44.005v-87.99z"/>
        <path stroke="#6046F8" stroke-linecap="round" stroke-linejoin="round" stroke-width=".846" d="M410.172 259.953l-57.159 33v-66l57.159-33z"/>
        <path fill="#ED6BA3" d="M410.172 259.953l-57.159-33v66z"/>
        <path stroke="#6046F8" stroke-linecap="round" stroke-linejoin="round" stroke-width=".846" d="M410.172 259.953l-57.159-33v66z"/>
        <path fill="#FFF" d="M410.172 193.952l-57.159 33 57.159 33z"/>
        <path stroke="#6046F8" stroke-linecap="round" stroke-linejoin="round" stroke-width=".846" d="M410.172 193.952l-57.159 33 57.159 33z"/>
        <path stroke="#6046F8" stroke-dasharray="4.4,4.4,4.4" stroke-linecap="round" stroke-linejoin="round" stroke-width="1.1" d="M953.181 133.459l76.22-44.005-.01 132.005-38.118 21.993M610.231 529.452l55.74 33.83-131.937 76.173-76.223-43.995"/>
        <path fill="#FFF" d="M762.653 199.447l.001 44.012 38.116-22.006z"/>
        <path stroke="#6046F8" stroke-linecap="round" stroke-linejoin="round" stroke-width="1.1" d="M762.653 199.447l.001 44.012 38.116-22.006z"/>
        <path fill="#FFF" d="M953.18 441.46l-76.21-44-.013-131.987 76.223-44.007z"/>
        <path stroke="#6046F8" stroke-linecap="round" stroke-linejoin="round" stroke-width="1.1" d="M953.18 441.46l-76.21-44-.013-131.987 76.223-44.007z"/>
        <path fill="#ED478E" d="M762.655 243.459l-38.105 22 38.105 22 38.115-21.994z"/>
        <path stroke="#6046F8" stroke-linecap="round" stroke-linejoin="round" stroke-width="1.1" d="M762.655 243.459l-38.105 22 38.105 22 38.115-21.994z"/>
        <path fill="#6046F8" d="M572.126 221.458L343.496 353.46 152.956 243.45l-38.077 22.002L343.497 397.46 648.35 221.453l228.607 131.989 38.13-21.98-266.738-154.01z"/>
        <path fill="#ED478E" d="M991.295 155.461l-38.113-22.002-114.317 66-38.095-21.994-38.116 21.982 38.116 22.006-76.22 44.006 38.104 22.007z"/>
        <path stroke="#6046F8" stroke-linecap="round" stroke-linejoin="round" stroke-width="1.1" d="M991.295 155.461l-38.113-22.002-114.317 66-38.095-21.994-38.116 21.982 38.116 22.006-76.22 44.006 38.104 22.007z"/>
        <path fill="#FFF" d="M724.55 265.459l.01 131.996 38.08 22.004.013-131.992z"/>
        <path stroke="#6046F8" stroke-linecap="round" stroke-linejoin="round" stroke-width="1.1" d="M724.55 265.459l.01 131.996 38.08 22.004.013-131.992z"/>
        <path fill="#FFF" d="M343.488 67.45l-38.105 66 38.105 22z"/>
        <path stroke="#6046F8" stroke-linecap="round" stroke-linejoin="round" stroke-width="1.1" d="M343.488 67.45l-38.105 66 38.105 22z"/>
        <path fill="#ED6BA3" d="M343.488 67.45l38.105 66-38.105 22z"/>
        <path stroke="#6046F8" stroke-linecap="round" stroke-linejoin="round" stroke-width="1.1" d="M343.488 67.45l38.105 66-38.105 22z"/>
        <path fill="#FFF" d="M762.64 232.455l-19.052 33 19.053 11z"/>
        <path stroke="#6046F8" stroke-linecap="round" stroke-linejoin="round" stroke-width="1.1" d="M762.64 232.455l-19.052 33 19.053 11z"/>
        <path fill="#ED6BA3" d="M762.64 232.455l19.054 33-19.053 11z"/>
        <path stroke="#6046F8" stroke-linecap="round" stroke-linejoin="round" stroke-width="1.1" d="M762.64 232.455l19.054 33-19.053 11z"/>
        <path fill="#ED478E" d="M648.35 397.452l-114.304 65.994-38.117-21.994-38.105 22 76.222 43.994 152.41-87.994z"/>
        <path stroke="#6046F8" stroke-linecap="round" stroke-linejoin="round" stroke-width="1.1" d="M648.35 397.452l-114.304 65.994-38.117-21.994-38.105 22 76.222 43.994 152.41-87.994z"/>
        <path fill="#FFF" d="M457.824 463.452v44l-38.093-22.006-.012 44.006 114.315 66 .012-88.006z"/>
        <path stroke="#6046F8" stroke-linecap="round" stroke-linejoin="round" stroke-width="1.1" d="M457.824 463.452v44l-38.093-22.006-.012 44.006 114.315 66 .012-88.006z"/>
        <path fill="#ED478E" d="M419.731 485.447l38.093-21.994v44z"/>
        <path stroke="#6046F8" stroke-linecap="round" stroke-linejoin="round" stroke-width="1.1" d="M419.731 485.447l38.093-21.994v44z"/>
        <path fill="#ED8EB7" d="M534.034 595.452l76.223-44.005-.013-43.995 38.118-22.006-.012 44.006 38.105-22v-88l-152.41 87.994z"/>
        <path stroke="#6046F8" stroke-linecap="round" stroke-linejoin="round" stroke-width="1.1" d="M534.034 595.452l76.223-44.005-.013-43.995 38.118-22.006-.012 44.006 38.105-22v-88l-152.41 87.994z"/>
        <path fill="#ED8EB7" d="M648.35 529.452l-38.105-22 38.117-22.006z"/>
        <path stroke="#6046F8" stroke-linecap="round" stroke-linejoin="round" stroke-width="1.1" d="M648.35 529.452l-38.105-22 38.117-22.006z"/>
        <path fill="#FFF" d="M534.047 452.452l-19.053 33 19.053 11z"/>
        <path stroke="#6046F8" stroke-linecap="round" stroke-linejoin="round" stroke-width="1.1" d="M534.047 452.452l-19.053 33 19.053 11z"/>
        <path fill="#ED6BA3" d="M534.047 452.452l19.052 33-19.052 11z"/>
        <path stroke="#6046F8" stroke-linecap="round" stroke-linejoin="round" stroke-width="1.1" d="M534.047 452.452l19.052 33-19.052 11z"/>
        <g stroke="#6046F8" stroke-dasharray="4.4,4.4,4.4" stroke-linecap="round" stroke-linejoin="round" stroke-width="1.1">
            <path d="M838.863 441.455l-19.053 55 19.052 11v-66z"/>
            <path d="M838.863 441.455l19.052 55-19.053 11v-66zM838.876 518.454v-10.997"/>
        </g>
        <g>
            <path fill="#FFF" d="M800.758 463.46l-19.053 55 19.053 11z"/>
            <path stroke="#6046F8" stroke-linecap="round" stroke-linejoin="round" stroke-width="1.1" d="M800.758 463.46l-19.053 55 19.053 11z"/>
            <path fill="#ED6BA3" d="M800.758 463.46l19.052 55-19.052 11z"/>
            <path stroke="#6046F8" stroke-linecap="round" stroke-linejoin="round" stroke-width="1.1" d="M800.758 463.46l19.052 55-19.052 11zM800.77 540.46v-10.998"/>
        </g>
        <g stroke="#6046F8" stroke-dasharray="4.4,4.4,4.4" stroke-linecap="round" stroke-linejoin="round" stroke-width="1.1">
            <path d="M305.413 441.455l-19.053 55 19.053 11v-66zM305.413 441.455l19.053 55-19.053 11v-66zM305.426 518.454v-10.997"/>
        </g>
        <g>
            <path fill="#ED478E" d="M762.655 111.46l-38.105 22 38.105 22 38.115-21.995z"/>
            <path stroke="#6046F8" stroke-linecap="round" stroke-linejoin="round" stroke-width="1.1" d="M762.655 111.46l-38.105 22 38.105 22 38.115-21.995z"/>
            <path fill="#ED8EB7" d="M800.77 133.465l-38.116 21.994v43.988l38.116-21.982z"/>
            <path stroke="#6046F8" stroke-linecap="round" stroke-linejoin="round" stroke-width="1.1" d="M800.77 133.465l-38.116 21.994v43.988l38.116-21.982z"/>
            <path fill="#FFF" d="M665.971 167.277l.002 44.006 38.102 21.982.001-43.988z"/>
            <path stroke="#6046F8" stroke-linecap="round" stroke-linejoin="round" stroke-width="1.1" d="M665.971 167.277l.002 44.006 38.102 21.982.001-43.988z"/>
            <path stroke="#6046F8" stroke-dasharray="4.4,4.4,4.4" stroke-linecap="round" stroke-linejoin="round" stroke-width="1.1" d="M720.44 135.831l-48.752 28.147M757.555 158.395l-49.303 28.465M757.556 202.395l-50.184 28.974"/>
        </g>
        <path stroke="#6046F8" stroke-dasharray="4.4,4.4,4.4" stroke-linecap="round" stroke-linejoin="round" stroke-width="1.1" d="M305.38 139.31v54.642M343.509 159.11v54.267M381.593 139.31v54.642"/>
        <path fill="#ED8EB7" d="M991.295 419.466L953.18 441.46V221.466l-152.42 88.001-.001 88-38.119 21.992.014-131.993 228.641-132.005z"/>
        <path stroke="#6046F8" stroke-linecap="round" stroke-linejoin="round" stroke-width="1.1" d="M991.295 419.466L953.18 441.46V221.466l-152.42 88.001-.001 88-38.119 21.992.014-131.993 228.641-132.005z"/>
        <path stroke="#6046F8" stroke-dasharray="4.4,4.4,4.4" stroke-linecap="round" stroke-linejoin="round" stroke-width="1.1" d="M152.969 419.461l.014-88.009L.55 243.46l133.38-76.829v76.82"/>
        <path fill="#FFF" d="M896.037 263.26l.002 44.005 38.102 21.981V285.26z"/>
        <path stroke="#6046F8" stroke-linecap="round" stroke-linejoin="round" stroke-width="1.1" d="M896.037 263.26l.002 44.005 38.102 21.981V285.26z"/>
        <path fill="#ED478E" d="M896.039 307.265l38.103-22.006-.001 43.987z"/>
        <path stroke="#6046F8" stroke-linecap="round" stroke-linejoin="round" stroke-width="1.1" d="M896.039 307.265l38.103-22.006-.001 43.987z"/>
        <path fill="#ED6BA3" d="M896.037 263.26l.002 44.005 38.102-22.006z"/>
        <path stroke="#6046F8" stroke-linecap="round" stroke-linejoin="round" stroke-width="1.1" d="M896.037 263.26l.002 44.005 38.102-22.006z"/>
        <path stroke="#6046F8" stroke-dasharray="4.4,4.4,4.4" stroke-linecap="round" stroke-linejoin="round" stroke-width="1.1" d="M922.66 280.83l-25.216 14.564 16.74 9.666 19.957-12.115"/>
        <path fill="#ED478E" d="M796.005 394.712l-28.577-16.505.001 32.99z"/>
        <path stroke="#6046F8" stroke-linecap="round" stroke-linejoin="round" stroke-width=".825" d="M796.005 394.712l-28.577-16.505.001 32.99z"/>
        <path fill="#ED6BA3" d="M796.007 361.708l-.002 33.004-28.577-16.505z"/>
        <path stroke="#6046F8" stroke-linecap="round" stroke-linejoin="round" stroke-width=".825" d="M796.007 361.708l-.002 33.004-28.577-16.505z"/>
        <path stroke="#6046F8" stroke-dasharray="4.4,4.4,4.4" stroke-linecap="round" stroke-linejoin="round" stroke-width="1.1" d="M769.803 397.452l53.113 31.215L1029.39 309.46l-38.117-22.008M724.56 375.452l-38.118-24.942-133.355 79.944 17.325 10.001"/>
        <g>
            <path fill="#FFF" d="M495.91 111.406l-19.053 55 19.053 11z"/>
            <path stroke="#6046F8" stroke-linecap="round" stroke-linejoin="round" stroke-width="1.1" d="M495.91 111.406l-19.053 55 19.053 11z"/>
            <path fill="#ED6BA3" d="M495.91 111.406l19.052 55-19.052 11z"/>
            <path stroke="#6046F8" stroke-linecap="round" stroke-linejoin="round" stroke-width="1.1" d="M495.91 111.406l19.052 55-19.052 11zM495.923 188.405v-10.997"/>
        </g>
        <g>
            <path fill="#FFF" d="M686.425 1.447l-19.053 55 19.053 11z"/>
            <path stroke="#6046F8" stroke-linecap="round" stroke-linejoin="round" stroke-width="1.1" d="M686.425 1.447l-19.053 55 19.053 11z"/>
            <path fill="#ED6BA3" d="M686.425 1.447l19.053 55-19.053 11z"/>
            <path stroke="#6046F8" stroke-linecap="round" stroke-linejoin="round" stroke-width="1.1" d="M686.425 1.447l19.053 55-19.053 11zM686.438 78.446V67.45"/>
        </g>
        <g stroke="#6046F8" stroke-dasharray="4.4,4.4,4.4" stroke-linecap="round" stroke-linejoin="round" stroke-width="1.1">
            <path d="M686.438 45.447l-19.053 55 19.053 11v-66zM686.438 45.447l19.053 55-19.053 11v-66zM686.45 122.446v-10.998"/>
        </g>
        <g stroke="#6046F8" stroke-dasharray="4.4,4.4,4.4" stroke-linecap="round" stroke-linejoin="round" stroke-width="1.1">
            <path d="M381.596 331.467l.002 44.006 38.102 21.981v-43.987l-38.104-22zM457.817 331.473l-.024 43.975-38.093 22.006"/>
        </g>
    </g>
</svg>
