<svg xmlns="http://www.w3.org/2000/svg" width="82" height="81" viewBox="0 0 82 81">
    <g fill="none" fill-rule="evenodd">
        <path fill="#ED8EB7" d="M80.786 40.461c0 21.991-17.827 39.817-39.817 39.817S1.151 62.452 1.151 40.461C1.151 18.471 18.978.644 40.97.644c21.99 0 39.817 17.827 39.817 39.817"/>
        <path stroke="#6046F8" stroke-linecap="round" stroke-linejoin="round" stroke-width="1.1" d="M80.786 40.461c0 21.991-17.827 39.817-39.817 39.817S1.151 62.452 1.151 40.461C1.151 18.471 18.978.644 40.97.644c21.99 0 39.817 17.827 39.817 39.817z"/>
        <path fill="#FFF" d="M43.724 6.607C57.14 11.387 66.8 24.733 66.8 40.46c0 15.729-9.66 29.076-23.076 33.855 17.474-1.403 31.22-16.02 31.22-33.855 0-17.834-13.746-32.45-31.22-33.854"/>
    </g>
</svg>
