<svg xmlns="http://www.w3.org/2000/svg" width="82" height="82" viewBox="0 0 82 82">
    <g fill="none" fill-rule="evenodd">
        <path fill="#ED8EB7" d="M81.008 41.05c0 21.99-17.827 39.817-39.817 39.817C19.2 80.867 1.373 63.04 1.373 41.05S19.2 1.233 41.191 1.233c21.99 0 39.817 17.826 39.817 39.817"/>
        <path stroke="#6046F8" stroke-linecap="round" stroke-linejoin="round" stroke-width="1.1" d="M81.008 41.05c0 21.99-17.827 39.817-39.817 39.817C19.2 80.867 1.373 63.04 1.373 41.05S19.2 1.233 41.191 1.233c21.99 0 39.817 17.826 39.817 39.817z"/>
        <path fill="#FFF" d="M43.946 7.195C57.36 11.975 67.02 25.32 67.02 41.05c0 15.73-9.66 29.075-23.075 33.855C61.42 73.5 75.166 58.885 75.166 41.05c0-17.835-13.746-32.45-31.22-33.854"/>
    </g>
</svg>
