<svg xmlns="http://www.w3.org/2000/svg" width="151" height="44" viewBox="0 0 151 44">
    <g fill="#ED1973" fill-rule="evenodd">
        <path d="M10.042 38.092c.507-.396 1.268-1.295 1.31-1.554l.02-11.19c-.366-.61-.966-1.125-1.334-1.28a1.632 1.632 0 0 0-.166.015l-5.124.721-.026 14.04 5.227-.734c.03-.004.067-.012.093-.018m5.057-15.725c.552.748.615 1.647.614 2.258l-.021 11.392c-.002.928-.197 1.741-.582 2.417-.424.743-1.854 2.502-2.684 3.107-.354.264-1.286.898-2.243 1.032l-9.81 1.378.043-23.035 9.809-1.378c.792-.11 1.694.033 2.297.372.83.411 2.186 1.91 2.577 2.457M35 16.056L34.97 33.42c-.002.891-.208 1.706-.614 2.421-.392.651-1.796 2.556-2.65 3.178-.64.52-1.541.933-2.278 1.037l-4.38.615c-.772.11-1.662-.046-2.327-.4-.768-.367-2.18-1.809-2.616-2.417-.41-.61-.616-1.367-.614-2.259l.032-17.362 4.339-.61-.032 17.288c.398.582 1.024 1.12 1.35 1.248l4.118-.58c.324-.228.957-.966 1.337-1.618l.028-17.295L35 16.056zM49.926 22.294v-.002l-.006.018.006-.016m-.023 6.416l.009.016-.002-.007-.007-.009m.006 2.684l.005-2.644-.002-.022c-.29-.5-.806-.899-.962-.908l-5.66.796-.01 4.81 5.71-.803c.152-.052.694-.616.906-1.104.004-.024.013-.072.013-.125m.017-9.195l.005-2.643-.008-.032c-.297-.51-.81-.92-.958-.935l-5.658.796-.01 4.846 5.71-.803c.154-.052.703-.624.91-1.113a.491.491 0 0 0 .009-.116m4.344-3.29l-.005 2.754c-.003 1.594-.567 2.58-1.21 3.408.66.661 1.2 1.46 1.198 3.033l-.005 2.83a5.133 5.133 0 0 1-.651 2.537c-.327.555-1.392 1.898-1.921 2.38-.731.654-1.762 1.138-2.693 1.27L38.93 38.531l.043-23.035 10.05-1.412a4.104 4.104 0 0 1 2.688.548c.53.335 1.592 1.381 1.914 1.838.535.771.646 1.752.644 2.438M73.594 10.632l-.043 23.035-4.339.61.017-9.195-6.8.956-.018 9.195-4.339.61.043-23.035 4.34-.61-.018 9.343 6.801-.956.017-9.344zM82.852 23.138l4.548-.64-2.246-6.878-2.302 7.518zm4.675-14.464l7.381 21.991-4.624.651-1.509-4.515-7.318 1.028-1.526 4.942-4.623.65L82.81 9.336l4.718-.663zM106.654 5.837c1.572-.22 3.14.65 4.66 2.585.242.324.379.577.592.956l.38.685-4.186 1.872-.15-.177c-.373-.447-1.081-1.209-1.427-1.404l-4.033.564c-.367.273-1.041 1.042-1.376 1.638a2.52 2.52 0 0 0-.01.255l-.02 11.316c.047.235.86.931 1.375 1.163a1.1 1.1 0 0 0 .09-.009l3.932-.552c.537-.34 1.212-1.42 1.428-1.81l.14-.255 4.176.605-.172.44c-.285.731-.471 1.117-.765 1.594-1.467 2.332-3.084 3.68-4.677 3.904l-4.311.606c-.77.108-1.662-.046-2.327-.4-.788-.377-2.195-1.756-2.62-2.389-.407-.6-.61-1.359-.608-2.25l.02-11.726c.003-.882.205-1.66.618-2.387.445-.742 1.862-2.58 2.644-3.172.28-.209 1.27-.899 2.316-1.047l4.31-.605zM132.53 2.35l-8.91 12.73a986.336 986.336 0 0 1 2.925 3.397 748.704 748.704 0 0 0 5.484 6.335l.5.566-5.393.758-6.973-8.128-.017 9.111-4.34.61.043-23.035 4.34-.61-.017 9.036c1.145-1.63 2.31-3.31 3.44-4.94a732.739 732.739 0 0 1 3.427-4.92l.108-.154 5.384-.757zM144.66.496c2.37-.333 3.917 1.639 4.66 2.585.282.384.466.702.728 1.272l.178.387-4.137 1.863-.149-.207c-.006-.01-.732-1.027-1.375-1.388l-4.913.688a.329.329 0 0 0-.065.016c-.468.329-1.173 1.242-1.268 1.495l-.004 1.826c0 .14.076.23.108.243l9.006 1.565c2.025.313 2.946 2.3 2.944 4.015l-.004 2.345c-.002.94-.214 1.758-.621 2.43-.448.779-1.86 2.575-2.64 3.164-.55.412-1.484.93-2.319 1.047l-6 .843c-2.182.307-3.707-1.331-4.663-2.59a4.88 4.88 0 0 1-.495-.821 32.397 32.397 0 0 1-.153-.29l-.198-.377 4.071-2.035.155.21c.007.01.637.867 1.383 1.389a.612.612 0 0 0 .08-.007l5.656-.795a.29.29 0 0 0 .063-.014c.436-.324 1.229-1.31 1.339-1.586l.005-2.154c0-.138-.1-.225-.137-.237l-8.978-1.496c-2.025-.316-2.947-2.303-2.944-4.016l.004-2.01c.001-.64.105-1.58.583-2.42.434-.76 1.892-2.582 2.678-3.175.282-.21 1.27-.901 2.319-1.047l5.104-.718z"/>
    </g>
</svg>
