<svg xmlns="http://www.w3.org/2000/svg" width="1030" height="706" viewBox="0 0 1030 706">
    <g fill="none" fill-rule="evenodd">
        <path fill="#65EAFD" d="M724.679 111.218l-38.105 22 190.531 109.998 38.1-21.998-152.424-88.002 38.108-21.998-38.105-22z"/>
        <path stroke="#6046F8" stroke-linecap="round" stroke-linejoin="round" stroke-width="1.1" d="M724.679 111.218l-38.105 22 190.531 109.998 38.1-21.998-152.424-88.002 38.108-21.998-38.105-22z"/>
        <path fill="#FFF" d="M686.573 133.218v44l76.21 44 .007 132 114.308 66 .007-176.002z"/>
        <path stroke="#6046F8" stroke-linecap="round" stroke-linejoin="round" stroke-width="1.1" d="M686.573 133.218v44l76.21 44 .007 132 114.308 66 .007-176.002z"/>
        <path fill="#FFF" d="M800.89 111.218l-38.11 21.998 38.101 21.997z"/>
        <path stroke="#6046F8" stroke-linecap="round" stroke-linejoin="round" stroke-width="1.1" d="M800.89 111.218l-38.11 21.998 38.101 21.997z"/>
        <path fill="#B1F5FD" d="M915.205 221.218l-38.1 21.998-.006 176.002 38.105-22z"/>
        <path stroke="#6046F8" stroke-linecap="round" stroke-linejoin="round" stroke-width="1.1" d="M915.205 221.218l-38.1 21.998-.006 176.002 38.105-22z"/>
        <path fill="#8BEEFD" d="M791.369 303.72l57.158-33.002v66z"/>
        <path stroke="#6046F8" stroke-linecap="round" stroke-linejoin="round" stroke-width="1.1" d="M791.369 303.72l57.158-33.002v66z"/>
        <path fill="#FFF" d="M791.369 237.718l57.158 33-57.158 33.001z"/>
        <path stroke="#6046F8" stroke-linecap="round" stroke-linejoin="round" stroke-width="1.1" d="M791.369 237.718l57.158 33-57.158 33.001z"/>
        <path fill="#65EAFD" d="M791.36 358.726l28.576-16.504v32.99z"/>
        <path stroke="#6046F8" stroke-linecap="round" stroke-linejoin="round" stroke-width="1.1" d="M791.36 358.726l28.576-16.504v32.99z"/>
        <path fill="#FFF" d="M791.357 325.722l.002 33.004 28.577-16.504z"/>
        <path stroke="#6046F8" stroke-linecap="round" stroke-linejoin="round" stroke-width="1.1" d="M791.357 325.722l.002 33.004 28.577-16.504z"/>
        <path fill="#65EAFD" d="M534.16 221.215l76.21-44 76.2 43.995v20.723l.01 23.282-38.113 22.003z"/>
        <path stroke="#6046F8" stroke-linecap="round" stroke-linejoin="round" stroke-width="1.1" d="M534.16 221.215l76.21-44 76.2 43.995v20.723l.01 23.282-38.113 22.003z"/>
        <path fill="#FFF" d="M572.264 243.222v43.994l76.22 43.994-.017-43.992z"/>
        <path stroke="#6046F8" stroke-linecap="round" stroke-linejoin="round" stroke-width="1.1" d="M572.264 243.222v43.994l76.22 43.994-.017-43.992z"/>
        <path fill="#B1F5FD" d="M686.58 265.215l-38.113 22.003.017 43.992 38.096 22.013z"/>
        <path stroke="#6046F8" stroke-linecap="round" stroke-linejoin="round" stroke-width="1.1" d="M686.58 265.215l-38.113 22.003.017 43.992 38.096 22.013z"/>
        <path fill="#65EAFD" d="M305.529 155.213l-38.127.01-38.091 21.991 38.106 22 76.21-44z"/>
        <path stroke="#6046F8" stroke-linecap="round" stroke-linejoin="round" stroke-width="1.1" d="M305.529 155.213l-38.127.01-38.091 21.991 38.106 22 76.21-44z"/>
        <path fill="#65EAFD" d="M267.404 287.207L153.109 353.21l-76.21-44 76.21-44 38.105 22 38.105-22z"/>
        <path stroke="#6046F8" stroke-linecap="round" stroke-linejoin="round" stroke-width="1.1" d="M267.404 287.207L153.109 353.21l-76.21-44 76.21-44 38.105 22 38.105-22z"/>
        <path fill="#FFF" d="M229.31 177.214l.009 87.996 38.085 21.997.012-87.993z"/>
        <path stroke="#6046F8" stroke-linecap="round" stroke-linejoin="round" stroke-width="1.1" d="M229.31 177.214l.009 87.996 38.085 21.997.012-87.993z"/>
        <path fill="#FFF" d="M153.108 353.21l-76.21-44-.009 44.005 76.21 44z"/>
        <path stroke="#6046F8" stroke-linecap="round" stroke-linejoin="round" stroke-width="1.1" d="M153.108 353.21l-76.21-44-.009 44.005 76.21 44z"/>
        <path fill="#65EAFD" d="M191.213 111.213l-38.105 22 38.105 22.001 38.098-21.996z"/>
        <path stroke="#6046F8" stroke-linecap="round" stroke-linejoin="round" stroke-width="1.1" d="M191.213 111.213l-38.105 22 38.105 22.001 38.098-21.996z"/>
        <path fill="#FFF" d="M153.108 133.213V265.21l38.105 22V155.214z"/>
        <path stroke="#6046F8" stroke-linecap="round" stroke-linejoin="round" stroke-width="1.1" d="M153.108 133.213V265.21l38.105 22V155.214z"/>
        <path fill="#B1F5FD" d="M229.31 133.218l-38.097 21.996V287.21l38.106-22z"/>
        <path stroke="#6046F8" stroke-linecap="round" stroke-linejoin="round" stroke-width="1.1" d="M229.31 133.218l-38.097 21.996V287.21l38.106-22z"/>
        <path fill="#B1F5FD" d="M343.627 155.214l-76.21 44-.013 87.993-114.296 66.003-.008 44.005 190.534-110z"/>
        <path stroke="#6046F8" stroke-linecap="round" stroke-linejoin="round" stroke-width="1.1" d="M343.627 155.214l-76.21 44-.013 87.993-114.296 66.003-.008 44.005 190.534-110z"/>
        <path fill="#65EAFD" d="M319.829 232.218l-28.577-16.505v32.991z"/>
        <path stroke="#6046F8" stroke-linecap="round" stroke-linejoin="round" stroke-width="1.1" d="M319.829 232.218l-28.577-16.505v32.991z"/>
        <path fill="#FFF" d="M319.83 199.214l-.001 33.004-28.577-16.505z"/>
        <path stroke="#6046F8" stroke-linecap="round" stroke-linejoin="round" stroke-width="1.1" d="M319.83 199.214l-.001 33.004-28.577-16.505z"/>
        <g>
            <path fill="#6046F8" d="M572.258 199.218L191.205 419.22l419.156 242 38.114-22-381.051-220.004 381.05-220-152.42-88-38.111 22.003z"/>
            <path stroke="#6046F8" stroke-linecap="round" stroke-linejoin="round" stroke-width="1.1" d="M572.258 199.218L191.205 419.22l419.156 242 38.114-22-381.051-220.004 381.05-220-152.42-88-38.111 22.003z"/>
        </g>
        <g>
            <path fill="#8BEEFD" d="M572.264 287.216L343.625 419.22l228.631 132 228.633-132z"/>
            <path stroke="#6046F8" stroke-linecap="round" stroke-linejoin="round" stroke-width="1.1" d="M572.264 287.216L343.625 419.22l228.631 132 228.633-132z"/>
        </g>
        <g>
            <path fill="#FFF" d="M343.634 1.352l-19.053 55 19.053 11z"/>
            <path stroke="#6046F8" stroke-linecap="round" stroke-linejoin="round" stroke-width="1.1" d="M343.634 1.352l-19.053 55 19.053 11z"/>
            <path fill="#8BEEFD" d="M343.634 1.352l19.052 55-19.052 11z"/>
            <path stroke="#6046F8" stroke-linecap="round" stroke-linejoin="round" stroke-width="1.1" d="M343.634 1.352l19.052 55-19.052 11zM343.647 78.351V67.354"/>
        </g>
        <g>
            <path fill="#FFF" d="M724.676 353.22l-38.105 66.001 38.105 22z"/>
            <path stroke="#6046F8" stroke-linecap="round" stroke-linejoin="round" stroke-width="1.1" d="M724.676 353.22l-38.105 66.001 38.105 22z"/>
            <path fill="#B1F5FD" d="M724.676 353.22l38.105 66-38.105 22.001z"/>
            <path stroke="#6046F8" stroke-linecap="round" stroke-linejoin="round" stroke-width="1.1" d="M724.676 353.22l38.105 66-38.105 22.001z"/>
            <path fill="#FFF" d="M686.565 485.214l.015 44.004 38.105 22-.015-88.004z"/>
            <path stroke="#6046F8" stroke-linecap="round" stroke-linejoin="round" stroke-width="1.1" d="M686.565 485.214l.015 44.004 38.105 22-.015-88.004z"/>
            <path fill="#B1F5FD" d="M762.79 441.766l-38.12 21.448.015 88.004 38.105-22z"/>
            <path stroke="#6046F8" stroke-linecap="round" stroke-linejoin="round" stroke-width="1.1" d="M762.79 441.766l-38.12 21.448.015 88.004 38.105-22z"/>
        </g>
        <g>
            <path fill="#FFF" d="M915 354v43.994l76.22 43.994-.017-43.992zM838.995 353.215v44l38.1 22.002.005-44.002z"/>
            <path stroke="#6046F8" stroke-linecap="round" stroke-linejoin="round" stroke-width="1.1" d="M838.995 353.215v44l38.1 22.002.005-44.002z"/>
            <path fill="#B1F5FD" d="M877.1 375.215l-.006 44.002 38.11-22v-44.002z"/>
            <path stroke="#6046F8" stroke-linecap="round" stroke-linejoin="round" stroke-width="1.1" d="M877.1 375.215l-.006 44.002 38.11-22v-44.002z"/>
            <path fill="#FFF" d="M877.095 419.217l.007 88 38.103 22v-132z"/>
            <path stroke="#6046F8" stroke-linecap="round" stroke-linejoin="round" stroke-width="1.1" d="M877.095 419.217l.007 88 38.103 22v-132z"/>
            <path fill="#65EAFD" d="M915.205 309.215l-76.21 44 38.106 22 38.104-22 76.205 44.002v-44z"/>
            <path stroke="#6046F8" stroke-linecap="round" stroke-linejoin="round" stroke-width="1.1" d="M915.205 309.215l-76.21 44 38.106 22 38.104-22 76.205 44.002v-44z"/>
            <path stroke="#6046F8" stroke-linecap="round" stroke-linejoin="round" stroke-width="1.1" d="M915.205 353.215v44.001l76.205 44.001v-44z"/>
            <path fill="#B1F5FD" d="M915.205 529.217l38.105-22-.006-87.997-38.099-22.004z"/>
            <path stroke="#6046F8" stroke-linecap="round" stroke-linejoin="round" stroke-width="1.1" d="M915.205 529.217l38.105-22-.006-87.997-38.099-22.004z"/>
        </g>
        <g>
            <path fill="#FFF" d="M915.203 300.418l-19.053 33 19.052 11z"/>
            <path stroke="#6046F8" stroke-linecap="round" stroke-linejoin="round" stroke-width="1.1" d="M915.203 300.418l-19.053 33 19.052 11z"/>
            <path fill="#B1F5FD" d="M915.203 300.418l19.052 33-19.053 11z"/>
            <path stroke="#6046F8" stroke-linecap="round" stroke-linejoin="round" stroke-width="1.1" d="M915.203 300.418l19.052 33-19.053 11z"/>
        </g>
        <g>
            <path fill="#FFF" d="M724.685 100.214l-19.053 33 19.053 11z"/>
            <path stroke="#6046F8" stroke-linecap="round" stroke-linejoin="round" stroke-width="1.1" d="M724.685 100.214l-19.053 33 19.053 11z"/>
            <path fill="#B1F5FD" d="M724.685 100.214l19.052 33-19.052 11z"/>
            <path stroke="#6046F8" stroke-linecap="round" stroke-linejoin="round" stroke-width="1.1" d="M724.685 100.214l19.052 33-19.052 11z"/>
        </g>
        <g>
            <path fill="#FFF" d="M648.485 145.59l-19.053 33 19.053 11z"/>
            <path stroke="#6046F8" stroke-linecap="round" stroke-linejoin="round" stroke-width="1.1" d="M648.485 145.59l-19.053 33 19.053 11z"/>
            <path fill="#B1F5FD" d="M648.485 145.59l19.052 33-19.052 11z"/>
            <path stroke="#6046F8" stroke-linecap="round" stroke-linejoin="round" stroke-width="1.1" d="M648.485 145.59l19.052 33-19.052 11z"/>
        </g>
        <g stroke="#6046F8" stroke-dasharray="4.4,4.4,4.4" stroke-linecap="round" stroke-linejoin="round" stroke-width="1.1">
            <path d="M343.647 45.16l-19.053 55 19.053 11v-66zM343.647 45.16l19.052 55-19.052 11v-66zM343.66 122.16v-10.997"/>
        </g>
        <g stroke="#6046F8" stroke-dasharray="4.4,4.4,4.4" stroke-linecap="round" stroke-linejoin="round" stroke-width="1.1">
            <path d="M762.758 584.316l-19.053 55 19.053 11v-66zM762.758 584.316l19.052 55-19.052 11v-66zM762.77 661.315v-10.997"/>
        </g>
        <g>
            <path fill="#FFF" d="M800.883 606.257l-19.052 55 19.052 11z"/>
            <path stroke="#6046F8" stroke-linecap="round" stroke-linejoin="round" stroke-width="1.1" d="M800.883 606.257l-19.052 55 19.052 11z"/>
            <path fill="#8BEEFD" d="M800.883 606.257l19.053 55-19.053 11z"/>
            <path stroke="#6046F8" stroke-linecap="round" stroke-linejoin="round" stroke-width="1.1" d="M800.883 606.257l19.053 55-19.053 11zM800.895 683.256V672.26"/>
        </g>
        <g stroke="#6046F8" stroke-dasharray="4.4,4.4,4.4" stroke-linecap="round" stroke-linejoin="round" stroke-width="1.1">
            <path d="M267.404 595.22l-19.053 55 19.053 11v-66zM267.404 595.22l19.052 55-19.052 11v-66zM267.416 672.22v-10.998"/>
        </g>
        <g>
            <path fill="#FFF" d="M305.519 617.222l-19.053 55 19.053 11z"/>
            <path stroke="#6046F8" stroke-linecap="round" stroke-linejoin="round" stroke-width="1.1" d="M305.519 617.222l-19.053 55 19.053 11z"/>
            <path fill="#8BEEFD" d="M305.519 617.222l19.052 55-19.052 11z"/>
            <path stroke="#6046F8" stroke-linecap="round" stroke-linejoin="round" stroke-width="1.1" d="M305.519 617.222l19.052 55-19.052 11zM305.532 694.221v-10.997"/>
        </g>
        <g>
            <path fill="#FFF" d="M972.369 188.158l-19.053 55 19.052 11z"/>
            <path stroke="#6046F8" stroke-linecap="round" stroke-linejoin="round" stroke-width="1.1" d="M972.369 188.158l-19.053 55 19.052 11z"/>
            <path fill="#8BEEFD" d="M972.369 188.158l19.052 55-19.053 11z"/>
            <path stroke="#6046F8" stroke-linecap="round" stroke-linejoin="round" stroke-width="1.1" d="M972.369 188.158l19.052 55-19.053 11zM972.38 265.157V254.16"/>
        </g>
        <g stroke="#6046F8" stroke-dasharray="4.4,4.4,4.4" stroke-linecap="round" stroke-linejoin="round" stroke-width="1.1">
            <path d="M1010.477 254.162l-19.053 55 19.053 11v-66zM1010.477 254.162l19.053 55-19.053 11v-66zM1010.49 331.16v-10.996"/>
        </g>
        <g>
            <path fill="#65EAFD" d="M191.209 463.215l-38.105 22 38.11 21.997 38.1-21.997z"/>
            <path stroke="#6046F8" stroke-linecap="round" stroke-linejoin="round" stroke-width="1.1" d="M191.209 463.215l-38.105 22 38.11 21.997 38.1-21.997z"/>
            <path fill="#FFF" d="M153.104 485.215v44l38.105 22 .006-44.003z"/>
            <path stroke="#6046F8" stroke-linecap="round" stroke-linejoin="round" stroke-width="1.1" d="M153.104 485.215v44l38.105 22 .006-44.003z"/>
            <path fill="#B1F5FD" d="M229.314 485.215l-38.099 21.997-.006 44.003 38.105-22z"/>
            <path stroke="#6046F8" stroke-linecap="round" stroke-linejoin="round" stroke-width="1.1" d="M229.314 485.215l-38.099 21.997-.006 44.003 38.105-22z"/>
            <path fill="#65EAFD" d="M153.093 441.215v22.005l.006 21.992 38.1-21.997z"/>
            <path stroke="#6046F8" stroke-linecap="round" stroke-linejoin="round" stroke-width="1.1" d="M153.093 441.215v22.005l.006 21.992 38.1-21.997z"/>
            <path fill="#B1F5FD" d="M191.199 463.215l-38.1 21.997-.006 44.003 38.106-22z"/>
            <path stroke="#6046F8" stroke-linecap="round" stroke-linejoin="round" stroke-width="1.1" d="M191.199 463.215l-38.1 21.997-.006 44.003 38.106-22z"/>
            <path stroke="#6046F8" stroke-dasharray="4.4,4.4,4.4" stroke-linecap="round" stroke-linejoin="round" stroke-width="1.1" d="M153.093 441.215l-38.099 22.005.01 43.995 38.09 22 .005-44.003-36.067-21.049"/>
        </g>
        <path stroke="#6046F8" stroke-dasharray="4.4,4.4,4.4" stroke-linecap="round" stroke-linejoin="round" stroke-width="1.1" d="M877.112 183.595L724.685 92.423l76.204-47.206v66.001M835.07 262.949l-53.235 30.87v92.398l95.26 52.426M953.322 463.214l19.046 11.004-57.166 33.001-57.156-33 19.051-11.215M153.09 221.213l-38.087-21.999-114.315 66 76.21 43.996"/>
        <g>
            <path fill="#65EAFD" d="M610.364 45.218l-38.105 22 38.11 21.997 38.1-21.997z"/>
            <path stroke="#6046F8" stroke-linecap="round" stroke-linejoin="round" stroke-width="1.1" d="M610.364 45.218l-38.105 22 38.11 21.997 38.1-21.997z"/>
            <path fill="#FFF" d="M572.258 67.218v44l38.105 22 .007-44.003z"/>
            <path stroke="#6046F8" stroke-linecap="round" stroke-linejoin="round" stroke-width="1.1" d="M572.258 67.218v44l38.105 22 .007-44.003z"/>
            <path fill="#B1F5FD" d="M648.469 67.218l-38.1 21.997-.005 44.003 38.105-22z"/>
            <path stroke="#6046F8" stroke-linecap="round" stroke-linejoin="round" stroke-width="1.1" d="M648.469 67.218l-38.1 21.997-.005 44.003 38.105-22z"/>
            <path fill="#FFF" d="M648.475 23.214l-.006 44.004 38.11 21.997-.005-43.997z"/>
            <path stroke="#6046F8" stroke-linecap="round" stroke-linejoin="round" stroke-width="1.1" d="M648.475 23.214l-.006 44.004 38.11 21.997-.005-43.997z"/>
            <g stroke="#6046F8" stroke-dasharray="4.4,4.4,4.4" stroke-linecap="round" stroke-linejoin="round" stroke-width="1.1">
                <path d="M648.475 23.214l-38.111 22.004M686.58 89.215l-38.111 22.003M686.574 45.218l-38.105 22"/>
            </g>
        </g>
        <g stroke="#6046F8" stroke-dasharray="4.4,4.4,4.4" stroke-linecap="round" stroke-linejoin="round" stroke-width="1.1">
            <path d="M648.485 189.59l-.017 48.128M667.537 178.59v44.822M629.432 178.59v44.822"/>
        </g>
        <path stroke="#6046F8" stroke-dasharray="4.4,4.4,4.4" stroke-linecap="round" stroke-linejoin="round" stroke-width="1.1" d="M686.565 507.214l-76.683 44.282"/>
        <g>
            <path fill="#B1F5FD" d="M572.264 507.217l-152.42 88v88l38.105-21.999-.009-43.999 114.317-66-.002 43.992 38.115-21.994v-88z"/>
            <path stroke="#6046F8" stroke-linecap="round" stroke-linejoin="round" stroke-width="1.1" d="M572.264 507.217l-152.42 88v88l38.105-21.999-.009-43.999 114.317-66-.002 43.992 38.115-21.994v-88z"/>
            <path fill="#65EAFD" d="M610.37 485.217h-38.106l-38.107-.002L381.73 573.22l38.115 21.998z"/>
            <path stroke="#6046F8" stroke-linecap="round" stroke-linejoin="round" stroke-width="1.1" d="M610.37 485.217h-38.106l-38.107-.002L381.73 573.22l38.115 21.998z"/>
            <path fill="#FFF" d="M572.256 551.22l-38.092 21.995 38.09 21.996z"/>
            <path stroke="#6046F8" stroke-linecap="round" stroke-linejoin="round" stroke-width="1.1" d="M572.256 551.22l-38.092 21.995 38.09 21.996z"/>
            <path fill="#B1F5FD" d="M381.74 617.225l-76.22-44.005 38.114-22.004 38.096 22.003z"/>
            <path stroke="#6046F8" stroke-linecap="round" stroke-linejoin="round" stroke-width="1.1" d="M381.74 617.225l-76.22-44.005 38.114-22.004 38.096 22.003z"/>
            <path fill="#FFF" d="M381.73 573.22l.009 44.005-76.22-44.005.01 43.997 114.315 66v-88z"/>
            <path stroke="#6046F8" stroke-linecap="round" stroke-linejoin="round" stroke-width="1.1" d="M381.73 573.22l.009 44.005-76.22-44.005.01 43.997 114.315 66v-88z"/>
            <path fill="#65EAFD" d="M605.604 529.497l-28.577-16.505.001 32.99z"/>
            <path stroke="#6046F8" stroke-linecap="round" stroke-linejoin="round" stroke-width="1.1" d="M605.604 529.497l-28.577-16.505.001 32.99z"/>
            <path fill="#FFF" d="M605.606 496.492l-.002 33.005-28.577-16.505z"/>
            <path stroke="#6046F8" stroke-linecap="round" stroke-linejoin="round" stroke-width="1.1" d="M605.606 496.492l-.002 33.005-28.577-16.505z"/>
            <g>
                <path fill="#65EAFD" d="M386.504 658.482l28.577-16.505v32.99z"/>
                <path stroke="#6046F8" stroke-linecap="round" stroke-linejoin="round" stroke-width="1.1" d="M386.504 658.482l28.577-16.505v32.99z"/>
                <path fill="#FFF" d="M386.502 625.477l.002 33.005 28.577-16.505z"/>
                <path stroke="#6046F8" stroke-linecap="round" stroke-linejoin="round" stroke-width="1.1" d="M386.502 625.477l.002 33.005 28.577-16.505z"/>
            </g>
        </g>
        <path stroke="#6046F8" stroke-dasharray="4.4,4.4,4.4" stroke-linecap="round" stroke-linejoin="round" stroke-width="1.1" d="M457.94 617.22l57.167 32.997-95.273 55.003-62.962-36.269 52.001-29.734"/>
        <g stroke="#6046F8" stroke-dasharray="4.4,4.4,4.4" stroke-linecap="round" stroke-linejoin="round" stroke-width="1.1">
            <path d="M515.108 487.697l-19.053 33 19.053 11v-44zM515.108 487.697l19.052 33-19.052 11v-44z"/>
        </g>
    </g>
</svg>
