<svg xmlns="http://www.w3.org/2000/svg" width="81" height="81" viewBox="0 0 81 81">
    <g fill="none" fill-rule="evenodd">
        <path fill="#8BEEFD" d="M80.384 40.396c0 21.991-17.827 39.817-39.817 39.817S.75 62.387.75 40.396C.75 18.406 18.576.58 40.567.58c21.99 0 39.817 17.826 39.817 39.816"/>
        <path stroke="#6046F8" stroke-linecap="round" stroke-linejoin="round" stroke-width="1.1" d="M80.384 40.396c0 21.991-17.827 39.817-39.817 39.817S.75 62.387.75 40.396C.75 18.406 18.576.58 40.567.58c21.99 0 39.817 17.826 39.817 39.816z"/>
        <path fill="#FFF" d="M43.322 6.542c13.415 4.78 23.076 18.126 23.076 33.855 0 15.729-9.66 29.075-23.076 33.854 17.474-1.404 31.22-16.02 31.22-33.855 0-17.835-13.746-32.45-31.22-33.855"/>
    </g>
</svg>
