<svg xmlns="http://www.w3.org/2000/svg" width="82" height="81" viewBox="0 0 82 81">
    <g fill="none" fill-rule="evenodd">
        <path fill="#8BEEFD" d="M80.93 40.595c0 21.991-17.827 39.817-39.817 39.817-21.991 0-39.818-17.826-39.818-39.817C1.295 18.605 19.122.78 41.113.78c21.99 0 39.817 17.826 39.817 39.816"/>
        <path stroke="#6046F8" stroke-linecap="round" stroke-linejoin="round" stroke-width="1.1" d="M80.93 40.595c0 21.991-17.827 39.817-39.817 39.817-21.991 0-39.818-17.826-39.818-39.817C1.295 18.605 19.122.78 41.113.78c21.99 0 39.817 17.826 39.817 39.816z"/>
        <path fill="#FFF" d="M43.867 6.742c13.416 4.779 23.076 18.125 23.076 33.854S57.283 69.67 43.867 74.45c17.475-1.403 31.221-16.02 31.221-33.854 0-17.835-13.746-32.451-31.22-33.854"/>
    </g>
</svg>
