<svg xmlns="http://www.w3.org/2000/svg" width="20" height="15" viewBox="0 0 20 15">
    <path fill="#FFF" fill-rule="evenodd" d="M19.091 1.705c0 .561-.174 1.097-.521 1.608a5.078 5.078 0 0 1-1.3 1.311c-2.671 1.853-4.333 3.008-4.987 3.462l-.452.325c-.231.167-.423.302-.575.405-.153.103-.338.218-.555.346a3.197 3.197 0 0 1-.612.288 1.685 1.685 0 0 1-.532.096h-.022a1.7 1.7 0 0 1-.533-.096 3.254 3.254 0 0 1-.612-.288 10.687 10.687 0 0 1-.554-.346 20.42 20.42 0 0 1-.575-.405l-.453-.325a532.3 532.3 0 0 0-2.791-1.944 426.553 426.553 0 0 1-2.184-1.518c-.44-.299-.856-.709-1.247-1.231C.195 2.871 0 2.387 0 1.939 0 1.385.148.924.443.555.737.184 1.158 0 1.705 0h15.682c.462 0 .861.167 1.198.501.338.334.506.735.506 1.204m0 3.132v8.459c0 .469-.167.87-.5 1.204-.334.333-.735.5-1.204.5H1.705c-.468 0-.87-.167-1.204-.5A1.641 1.641 0 0 1 0 13.296V4.837c.313.347.671.657 1.076.927 2.572 1.747 4.336 2.972 5.295 3.675.405.298.734.531.986.698a6.03 6.03 0 0 0 1.006.511c.419.174.81.261 1.172.261h.022c.362 0 .753-.087 1.172-.261a6.045 6.045 0 0 0 1.007-.511c.251-.167.58-.4.985-.698 1.207-.874 2.975-2.098 5.305-3.675a5.89 5.89 0 0 0 1.065-.927" opacity=".5"/>
</svg>
