<svg xmlns="http://www.w3.org/2000/svg" width="18" height="15" viewBox="0 0 18 15">
    <path fill="#FFF" fill-rule="evenodd" d="M17.701 2.79c0 .021-.846 1.403-2.538 4.151a2197.703 2197.703 0 0 1-2.974 4.824L8.331 5.491 11.537.277A.562.562 0 0 1 12.052 0a.56.56 0 0 1 .256.06l5.353 2.671c.026.013.04.033.04.059zm.029 1.187v10.429a.58.58 0 0 1-.138.402.484.484 0 0 1-.376.153.931.931 0 0 1-.465-.129l-4.363-2.177 5.342-8.678zM6.54 3.8l5.284 8.568L6.54 9.736V3.8zm-.633-.999v11.605a.708.708 0 0 1-.124.421.416.416 0 0 1-.361.173.712.712 0 0 1-.326-.079L.495 12.615a.835.835 0 0 1-.352-.331.876.876 0 0 1-.143-.46V.545A.57.57 0 0 1 .098.208.333.333 0 0 1 .386.069c.092 0 .237.05.435.149l5.056 2.533c.02.019.03.036.03.05z" opacity=".5"/>
</svg>
