<svg xmlns="http://www.w3.org/2000/svg" width="19" height="15" viewBox="0 0 19 15">
    <path fill="#FFF" fill-rule="evenodd" d="M18.469 1.781a7.918 7.918 0 0 1-1.898 1.957 10.742 10.742 0 0 1-.434 3.533 10.964 10.964 0 0 1-1.354 2.912 11.43 11.43 0 0 1-2.162 2.467c-.836.715-1.843 1.285-3.023 1.711-1.18.426-2.442.639-3.785.639-2.117 0-4.055-.567-5.813-1.699.274.031.578.046.914.046 1.758 0 3.325-.539 4.7-1.617a3.684 3.684 0 0 1-2.204-.756 3.708 3.708 0 0 1-1.336-1.869c.258.039.497.059.715.059.336 0 .668-.043.996-.129a3.72 3.72 0 0 1-2.173-1.307A3.652 3.652 0 0 1 .75 5.32v-.047a3.765 3.765 0 0 0 1.711.481 3.78 3.78 0 0 1-1.23-1.348 3.685 3.685 0 0 1-.457-1.805c0-.687.172-1.324.515-1.91A10.74 10.74 0 0 0 4.74 3.486a10.552 10.552 0 0 0 4.354 1.166A4.172 4.172 0 0 1 9 3.785c0-1.047.369-1.94 1.108-2.678A3.648 3.648 0 0 1 12.785 0c1.094 0 2.016.398 2.766 1.195a7.422 7.422 0 0 0 2.402-.914 3.673 3.673 0 0 1-1.664 2.086 7.556 7.556 0 0 0 2.18-.586" opacity=".5"/>
</svg>
