<svg xmlns="http://www.w3.org/2000/svg" viewBox="0 0 91.8 105.9"><defs><style>.cls-1{fill:#ffe166;}.cls-1,.cls-2,.cls-3{stroke:#ed1973;stroke-linecap:round;stroke-linejoin:round;}.cls-2{fill:#fff;}.cls-3{fill:#ffe98c;}</style></defs><title>Asset 2chal</title><g id="Layer_2" data-name="Layer 2"><g id="letters"><polygon class="cls-1" points="30.8 35.5 0.5 52.9 61 87.9 91.3 70.4 30.8 35.5"/><polygon class="cls-2" points="0.5 52.9 0.5 70.4 61 105.4 61 87.9 0.5 52.9"/><polygon class="cls-3" points="91.3 70.4 61 87.9 61 105.4 91.3 87.9 91.3 70.4"/><polygon class="cls-1" points="30.8 0.5 0.5 18 61 52.9 91.3 35.4 30.8 0.5"/><polygon class="cls-2" points="0.5 18 0.5 35.4 61 70.4 61 52.9 0.5 18"/><polygon class="cls-3" points="91.3 35.4 61 52.9 61 70.4 91.3 52.9 91.3 35.4"/></g></g></svg>