<svg xmlns="http://www.w3.org/2000/svg" viewBox="0 0 102.2 120.8"><defs><style>.cls-1{fill:#fff;}.cls-1,.cls-2,.cls-3{stroke:#ed1973;stroke-linecap:round;stroke-linejoin:round;}.cls-2{fill:#ffe98c;}.cls-3{fill:#ffe166;}</style></defs><title>Asset 3chal</title><g id="Layer_2" data-name="Layer 2"><g id="letters"><polygon class="cls-1" points="35.9 0.5 11.1 43.4 35.9 57.7 35.9 0.5"/><polygon class="cls-2" points="35.9 0.5 60.7 43.4 35.9 57.7 35.9 0.5"/><polygon class="cls-3" points="27 59 0.5 74.3 27 89.6 53.6 74.3 27 59"/><polygon class="cls-1" points="0.5 74.3 0.5 105 27 120.3 27 89.6 0.5 74.3"/><polygon class="cls-2" points="53.6 74.3 27 89.6 27 120.3 53.6 105 53.6 74.3"/><path class="cls-1" d="M59.3,56.8c0-3.2,2-6.3,6.2-8.7,8.2-4.8,21.7-4.8,30,0,4.1,2.4,6.2,5.5,6.2,8.6v30m0,0c0,3.2-2.1,6.3-6.2,8.7-8.3,4.8-21.8,4.8-30,0-4.2-2.4-6.2-5.5-6.2-8.6v-30"/><ellipse class="cls-3" cx="80.5" cy="56.8" rx="21.2" ry="12.2"/></g></g></svg>