<svg xmlns="http://www.w3.org/2000/svg" viewBox="0 0 74.4 107"><defs><style>.cls-1{fill:#ffe166;}.cls-1,.cls-2,.cls-3{stroke:#ed1973;stroke-linecap:round;stroke-linejoin:round;}.cls-2{fill:#fff;}.cls-3{fill:#ffe98c;}</style></defs><title>Asset 1</title><g id="Layer_2" data-name="Layer 2"><g id="letters"><polygon class="cls-1" points="55.6 0.5 37.2 11.1 55.6 21.7 73.9 11.1 55.6 0.5"/><polygon class="cls-2" points="37.2 11.1 37.2 74.7 55.6 85.3 55.6 21.7 37.2 11.1"/><polygon class="cls-3" points="73.9 11.1 55.6 21.7 55.6 85.3 73.9 74.7 73.9 11.1"/><polygon class="cls-1" points="37.2 32.3 18.9 42.9 37.2 53.5 55.6 42.9 37.2 32.3"/><polygon class="cls-2" points="18.9 42.9 18.9 85.3 37.2 95.9 37.2 53.5 18.9 42.9"/><polygon class="cls-3" points="55.6 42.9 37.2 53.5 37.2 95.9 55.6 85.3 55.6 42.9"/><polygon class="cls-1" points="18.9 64.1 0.5 74.7 18.9 85.3 37.2 74.7 18.9 64.1"/><polygon class="cls-2" points="0.5 74.7 0.5 95.9 18.9 106.5 18.9 85.3 0.5 74.7"/><polygon class="cls-3" points="37.2 74.7 18.9 85.3 18.9 106.5 37.2 95.9 37.2 74.7"/></g></g></svg>