<svg xmlns="http://www.w3.org/2000/svg" viewBox="0 0 455 455"><defs><style>.a{fill:#ec1873}</style></defs><title>logo-circle</title><path class="a" d="M227.14 454.29c-101 0-193.48-68-219.9-170.31C-24.08 162.75 49.07 38.64 170.31 7.31a227.08 227.08 0 0 1 252.44 335.17 227.28 227.28 0 0 1-195.6 111.81zm.34-444.53a218.64 218.64 0 0 0-54.73 7 217.33 217.33 0 0 0-56 397.64 217.33 217.33 0 0 0 320.78-241.58 217.59 217.59 0 0 0-210-163.05z"/><path class="a" d="M113.35 254.39c.85 4.81.65 7.17-2.9 7.8l-.79.14c-3.56.63-5.83-1.3-6.68-6.11l-4.48-25.36-13 2.29L90 258.5c2.24 12.68 8.94 18.41 21.82 16.14l.79-.14c12.88-2.27 16.58-9.84 14.35-22.52l-4.47-25.35-13.61 2.37zm204.23-28.04a11.36 11.36 0 0 1-6.46-.62 10.83 10.83 0 0 1-4.95-3.77 14.21 14.21 0 0 1-2.58-6.17 10.19 10.19 0 0 1 2-8.29 11.64 11.64 0 0 1 7.58-4.54 15.36 15.36 0 0 1 5-.08 13.42 13.42 0 0 1 4.52 1.64l5.51-11.16a24.88 24.88 0 0 0-8.28-2.73 28 28 0 0 0-8.95.14 28.89 28.89 0 0 0-9.87 3.59 24.28 24.28 0 0 0-7.2 6.45 23.88 23.88 0 0 0-3.9 8.8 26.26 26.26 0 0 0 0 10.39 22.64 22.64 0 0 0 5.12 10.86 23.53 23.53 0 0 0 10.41 6.91 27.86 27.86 0 0 0 14 .82 31.28 31.28 0 0 0 11.64-4.8 15 15 0 0 0 4.09-3.92l-9.36-8.35a13 13 0 0 1-8.32 4.83zM417 196.3a15.3 15.3 0 0 0-7.92-2.75q-4.1-.22-8.17-.59-3.71-.34-4.13-2.74-.47-2.67 4.29-3.51a12.14 12.14 0 0 1 7.79 1.24l6.34-9a24.77 24.77 0 0 0-5.12-2.43 26.62 26.62 0 0 0-5.73-1.33 21.07 21.07 0 0 0-5.55.21 23.23 23.23 0 0 0-8.41 3.15 14.65 14.65 0 0 0-5.47 6 13.71 13.71 0 0 0-1 8.55q1.1 6.25 4.56 8.75a15.66 15.66 0 0 0 8 2.91q5.58.46 8.13.6 3.61.31 4 2.23.65 3.67-5.6 4.77A14 14 0 0 1 392.1 210l-5.43 10.6a37 37 0 0 0 6.41 2.61 21.36 21.36 0 0 0 6.07.91 35.66 35.66 0 0 0 7-.6 22.7 22.7 0 0 0 8.47-3.34 15.38 15.38 0 0 0 5.86-6.4 13.72 13.72 0 0 0 1.09-8.66q-1.16-6.36-4.57-8.82zm-244.46 25.97a25.78 25.78 0 0 0-9.15-3.57 28.94 28.94 0 0 0-10 0 26.3 26.3 0 0 0-7.13 2.24l2.51 14.26c.58-.49.89-.92 1.39-1.33a11.78 11.78 0 0 1 11.51-2 12.15 12.15 0 0 1 5.05 3.35 10.36 10.36 0 0 1 2.61 5.31 10.94 10.94 0 0 1-2.08 8.66 11.84 11.84 0 0 1-16.39 2.89 10.91 10.91 0 0 1-4.91-7.42l-7-39.63-.22-.08-14.9 2.67 7.05 40c.78 4.43 3.28 8.12 6.24 11.29a25.61 25.61 0 0 0 11.24 6.85 27.6 27.6 0 0 0 13.33.89 27.24 27.24 0 0 0 9.46-3.52 25.55 25.55 0 0 0 7.41-6.49 24.65 24.65 0 0 0 4.34-8.7 23.55 23.55 0 0 0-3.38-19 23.75 23.75 0 0 0-6.98-6.67zm19.33 37.65l12.3-2.26-3.48-19.74-7.46-42.33-12.31 2.22 10.95 62.11zm16.86-51.06a23.29 23.29 0 0 0-7 2.46c-.44.27-1.57.69-1.54.91l2 11.49c-.08-.43 2.13-1.06 3.36-1.27 2.21-.39 5-.19 6.43.94a9.18 9.18 0 0 1 3.82 5.55l4.57 25.92 14.26-2.56-4.73-26.84c-2.31-13.15-9.9-18.58-21.17-16.6zm131.06 25.58l15.56-2.74-3.96-22.49-.02-.13-.99-5.56-.01-.11L344.3 169l-15.55 2.79 11.04 62.65zm36.71-52.59l-16.39 2.89-7.51 12.38 3.22 18.27 13.97 13.77 17.44-3.08-23.52-22.18 12.79-22.05zM63.71 218.16l7 39.85a11 11 0 0 1-2.1 8.53 11.84 11.84 0 0 1-16.39 2.9 10.93 10.93 0 0 1-4.89-7.44 10.35 10.35 0 0 1 .63-5.88 12.11 12.11 0 0 1 3.6-4.87 11.73 11.73 0 0 1 5.5-2.55 10.63 10.63 0 0 1 5.75.56c.67.24 1.58.49 1.66.91l-2.53-14.35c-1.41-.42-4.82-.16-7.32.28a28.21 28.21 0 0 0-9.3 3.4A25.55 25.55 0 0 0 38 246a23.64 23.64 0 0 0-4.26 8.64 23.64 23.64 0 0 0 3.33 19 24.58 24.58 0 0 0 7 6.69 25.36 25.36 0 0 0 9.15 3.57 27.45 27.45 0 0 0 22.1-5.29 25 25 0 0 0 8-10.24 22 22 0 0 0 1.48-12.66l-7.05-40zM282 210.77a23.78 23.78 0 0 0-6.88-6.63 24.85 24.85 0 0 0-9.12-3.54 28.15 28.15 0 0 0-10 0 27.3 27.3 0 0 0-9.39 3.5 24.83 24.83 0 0 0-7.35 6.39 24.12 24.12 0 0 0-4.3 8.6 23.45 23.45 0 0 0 5.33 21.55 26.64 26.64 0 0 0 23.71 7.83c2.47-.43 6.51-1.48 7-2.23l-2.47-14c-.38 1.66-4.14 3.14-6.8 3.61a11 11 0 0 1-8.52-1.92 10.77 10.77 0 0 1-4.79-7.4 10.63 10.63 0 0 1 .68-5.93 12.21 12.21 0 0 1 3.63-4.88 12.09 12.09 0 0 1 11.52-2 12.15 12.15 0 0 1 5.06 3.35 10.24 10.24 0 0 1 2.16 5.43v.05l4 22.6 13.79-2.3-3.67-22.85a22.55 22.55 0 0 0-3.59-9.23z"/></svg>